<svg width="24" height="24" viewBox="0 0 24 24" fill="none" xmlns="http://www.w3.org/2000/svg">
<path d="M7.53067 3.75012C7.78833 3.74759 8.0379 3.83866 8.23289 4.00602C8.35548 4.11124 8.51658 4.32922 8.68368 4.67851C8.84496 5.01564 8.98759 5.42371 9.09917 5.85289C9.33165 6.74713 9.38949 7.57296 9.30942 7.94761C9.26058 8.1762 9.10983 8.41801 8.83299 8.71081C8.69752 8.85409 8.54672 8.99459 8.38133 9.14566L8.31203 9.20884C8.1715 9.33685 8.01901 9.47576 7.88044 9.61405C7.64111 9.85291 7.5912 10.2224 7.75859 10.5162C9.11388 12.8949 11.0873 14.8643 13.4704 16.2167C13.7636 16.3831 14.1317 16.3334 14.3703 16.0953C14.5089 15.957 14.6481 15.8048 14.7764 15.6645L14.8397 15.5954C14.991 15.4303 15.1318 15.2798 15.2754 15.1446C15.5686 14.8685 15.8113 14.7176 16.0413 14.6686C16.4183 14.5884 17.25 14.6466 18.1485 14.8801C18.58 14.9922 18.9898 15.1355 19.3278 15.2976C19.6782 15.4656 19.8954 15.6272 19.9992 15.7495C20.1671 15.9473 20.2561 16.1995 20.2497 16.4581L20.2495 16.4767V19.1865L20.2495 19.1895C20.2519 19.7852 19.6976 20.3005 19.0938 20.246C19.0712 20.244 19.0486 20.243 19.0259 20.243C10.4163 20.2497 3.75037 13.5231 3.75711 4.96984C3.75713 4.94707 3.75611 4.9243 3.75406 4.90162C3.70005 4.30521 4.20987 3.75089 4.80858 3.75015L7.5233 3.75019L7.53067 3.75012Z" fill="#7E74F1"/>
<path d="M15.0828 2.25465C14.6711 2.20892 14.3003 2.50558 14.2546 2.91726C14.2088 3.32894 14.5055 3.69975 14.9172 3.74548C16.2556 3.89416 17.4818 4.54375 18.47 5.53073C19.4567 6.51622 20.1041 7.74378 20.2547 9.08381C20.3009 9.49543 20.6721 9.79163 21.0837 9.74537C21.4954 9.69912 21.7916 9.32794 21.7453 8.91632C21.5517 7.19372 20.7239 5.66177 19.53 4.4694C18.3376 3.27852 16.8075 2.44625 15.0828 2.25465Z" fill="#7E74F1"/>
<path d="M14.6436 5.76394C14.2371 5.68463 13.8432 5.9499 13.7639 6.35644C13.6845 6.76299 13.9498 7.15687 14.3564 7.23619C14.9877 7.35937 15.5701 7.63083 15.9697 8.03039C16.3692 8.42996 16.6407 9.0123 16.7639 9.64368C16.8432 10.0502 17.2371 10.3155 17.6436 10.2362C18.0502 10.1569 18.3154 9.76299 18.2361 9.35644C18.0717 8.51351 17.6929 7.63232 17.0303 6.96973C16.3677 6.30715 15.4865 5.92841 14.6436 5.76394Z" fill="#7E74F1"/>
</svg>
