<svg width="145" height="344" viewBox="0 0 145 344" fill="none" xmlns="http://www.w3.org/2000/svg">
<path d="M144.693 192.098C144.824 192.098 144.925 191.993 144.925 191.859C144.925 191.724 144.824 191.62 144.693 191.62C144.562 191.62 144.46 191.724 144.46 191.859C144.46 191.993 144.562 192.098 144.693 192.098Z" fill="black" fill-opacity="0.5"/>
<path d="M138.61 185.552C138.741 185.552 138.843 185.448 138.843 185.313C138.843 185.179 138.741 185.074 138.61 185.074C138.479 185.074 138.377 185.179 138.377 185.313C138.377 185.448 138.479 185.552 138.61 185.552Z" fill="black" fill-opacity="0.5"/>
<path d="M133.111 178.353C133.171 178.353 133.215 178.307 133.215 178.245C133.215 178.184 133.171 178.138 133.111 178.138C133.052 178.138 133.007 178.184 133.007 178.245C133.007 178.307 133.066 178.353 133.111 178.353Z" fill="black" fill-opacity="0.5"/>
<path d="M128.263 170.942C128.394 170.942 128.496 170.838 128.496 170.703C128.496 170.569 128.394 170.464 128.263 170.464C128.132 170.464 128.03 170.569 128.03 170.703C128.03 170.838 128.132 170.942 128.263 170.942Z" fill="black" fill-opacity="0.5"/>
<path d="M124.089 162.847C124.149 162.847 124.194 162.801 124.194 162.739C124.194 162.678 124.149 162.632 124.089 162.632C124.03 162.632 123.985 162.678 123.985 162.739C124 162.801 124.045 162.847 124.089 162.847Z" fill="black" fill-opacity="0.5"/>
<path d="M120.638 154.624C120.74 154.624 120.827 154.535 120.827 154.43C120.827 154.325 120.74 154.236 120.638 154.236C120.521 154.236 120.434 154.325 120.434 154.43C120.434 154.535 120.521 154.624 120.638 154.624Z" fill="black" fill-opacity="0.5"/>
<path d="M117.919 145.936C117.979 145.936 118.024 145.89 118.024 145.829C118.024 145.768 117.979 145.722 117.919 145.722C117.86 145.722 117.815 145.768 117.815 145.829C117.815 145.89 117.86 145.936 117.919 145.936Z" fill="black" fill-opacity="0.5"/>
<path d="M115.954 137.041C115.969 137.041 115.985 137.025 115.985 137.009C115.985 136.993 115.969 136.977 115.954 136.977C115.938 136.977 115.923 136.993 115.923 137.009C115.923 137.025 115.938 137.041 115.954 137.041Z" fill="black" fill-opacity="0.5"/>
<path d="M120.64 83.6503C120.655 83.6503 120.671 83.6343 120.671 83.6183C120.671 83.6024 120.655 83.5864 120.64 83.5864C120.624 83.5864 120.609 83.6024 120.609 83.6183C120.594 83.6343 120.609 83.6503 120.64 83.6503Z" fill="black" fill-opacity="0.5"/>
<path d="M141.826 203.198C142.045 203.198 142.219 203.019 142.219 202.795C142.219 202.571 142.045 202.392 141.826 202.392C141.608 202.392 141.433 202.571 141.433 202.795C141.433 203.019 141.608 203.198 141.826 203.198Z" fill="black" fill-opacity="0.5"/>
<path d="M135.408 197.025C135.641 197.025 135.83 196.831 135.83 196.592C135.83 196.353 135.641 196.159 135.408 196.159C135.175 196.159 134.986 196.353 134.986 196.592C134.986 196.831 135.175 197.025 135.408 197.025Z" fill="black" fill-opacity="0.5"/>
<path d="M129.5 190.18C129.66 190.18 129.791 190.045 129.791 189.881C129.791 189.716 129.66 189.582 129.5 189.582C129.34 189.582 129.209 189.716 129.209 189.881C129.209 190.045 129.34 190.18 129.5 190.18Z" fill="black" fill-opacity="0.5"/>
<path d="M124.145 182.997C124.305 182.997 124.436 182.863 124.436 182.699C124.436 182.534 124.305 182.4 124.145 182.4C123.985 182.4 123.854 182.534 123.854 182.699C123.854 182.863 124 182.997 124.145 182.997Z" fill="black" fill-opacity="0.5"/>
<path d="M119.386 175.498C119.604 175.498 119.779 175.318 119.779 175.094C119.779 174.87 119.604 174.691 119.386 174.691C119.168 174.691 118.993 174.87 118.993 175.094C118.993 175.318 119.168 175.498 119.386 175.498Z" fill="black" fill-opacity="0.5"/>
<path d="M115.253 167.446C115.428 167.446 115.573 167.297 115.573 167.117C115.573 166.923 115.428 166.789 115.253 166.789C115.078 166.789 114.933 166.938 114.933 167.117C114.918 167.297 115.064 167.446 115.253 167.446Z" fill="black" fill-opacity="0.5"/>
<path d="M111.746 159.109C111.907 159.109 112.038 158.975 112.038 158.811C112.038 158.646 111.907 158.512 111.746 158.512C111.586 158.512 111.455 158.646 111.455 158.811C111.455 158.975 111.586 159.109 111.746 159.109Z" fill="black" fill-opacity="0.5"/>
<path d="M108.938 150.487C109.069 150.487 109.171 150.383 109.171 150.248C109.171 150.114 109.069 150.009 108.938 150.009C108.807 150.009 108.705 150.114 108.705 150.248C108.705 150.383 108.807 150.487 108.938 150.487Z" fill="black" fill-opacity="0.5"/>
<path d="M106.799 141.7C106.93 141.7 107.032 141.596 107.032 141.461C107.032 141.327 106.93 141.222 106.799 141.222C106.668 141.222 106.566 141.327 106.566 141.461C106.566 141.596 106.668 141.7 106.799 141.7Z" fill="black" fill-opacity="0.5"/>
<path d="M105.358 132.757C105.46 132.757 105.547 132.667 105.547 132.562C105.547 132.458 105.46 132.368 105.358 132.368C105.256 132.368 105.169 132.458 105.169 132.562C105.169 132.667 105.256 132.757 105.358 132.757Z" fill="black" fill-opacity="0.5"/>
<path d="M104.648 123.681C104.723 123.681 104.782 123.62 104.782 123.543C104.782 123.467 104.723 123.405 104.648 123.405C104.574 123.405 104.514 123.467 104.514 123.543C104.514 123.62 104.574 123.681 104.648 123.681Z" fill="black" fill-opacity="0.5"/>
<path d="M104.648 114.604C104.707 114.604 104.752 114.558 104.752 114.496C104.752 114.435 104.707 114.389 104.648 114.389C104.588 114.389 104.543 114.435 104.543 114.496C104.543 114.558 104.588 114.604 104.648 114.604Z" fill="black" fill-opacity="0.5"/>
<path d="M105.36 105.524C105.376 105.524 105.391 105.508 105.391 105.492C105.391 105.476 105.376 105.46 105.36 105.46C105.345 105.46 105.329 105.476 105.329 105.492C105.329 105.508 105.345 105.524 105.36 105.524Z" fill="black" fill-opacity="0.5"/>
<path d="M106.8 96.6029C106.816 96.6029 106.831 96.5869 106.831 96.571C106.831 96.555 106.816 96.5391 106.8 96.5391C106.785 96.5391 106.77 96.555 106.77 96.571C106.77 96.5869 106.785 96.6029 106.8 96.6029Z" fill="black" fill-opacity="0.5"/>
<path d="M108.94 87.8344C108.956 87.8344 108.971 87.8184 108.971 87.8024C108.971 87.7865 108.956 87.7705 108.94 87.7705C108.925 87.7705 108.909 87.7865 108.909 87.8024C108.894 87.8184 108.909 87.8344 108.94 87.8344Z" fill="black" fill-opacity="0.5"/>
<path d="M111.748 79.2601C111.763 79.2601 111.779 79.2442 111.779 79.2282C111.779 79.2123 111.763 79.1963 111.748 79.1963C111.732 79.1963 111.717 79.2123 111.717 79.2282C111.717 79.2442 111.732 79.2601 111.748 79.2601Z" fill="black" fill-opacity="0.5"/>
<path d="M129.502 48.201C129.518 48.201 129.533 48.1851 129.533 48.1691C129.533 48.1532 129.518 48.1372 129.502 48.1372C129.487 48.1372 129.471 48.1532 129.471 48.1691C129.471 48.1851 129.487 48.201 129.502 48.201Z" fill="black" fill-opacity="0.5"/>
<path d="M139.091 214.296C139.483 214.296 139.804 213.967 139.804 213.564C139.804 213.16 139.483 212.832 139.091 212.832C138.698 212.832 138.377 213.16 138.377 213.564C138.377 213.967 138.683 214.296 139.091 214.296Z" fill="black" fill-opacity="0.5"/>
<path d="M132.41 208.291C132.759 208.291 133.036 208.007 133.036 207.648C133.036 207.29 132.759 207.006 132.41 207.006C132.075 207.006 131.784 207.29 131.784 207.648C131.784 208.007 132.075 208.291 132.41 208.291Z" fill="black" fill-opacity="0.5"/>
<path d="M126.183 201.801C126.474 201.801 126.706 201.562 126.706 201.263C126.706 200.965 126.474 200.726 126.183 200.726C125.892 200.726 125.659 200.965 125.659 201.263C125.659 201.562 125.892 201.801 126.183 201.801Z" fill="black" fill-opacity="0.5"/>
<path d="M120.434 194.752C120.609 194.752 120.754 194.603 120.754 194.408C120.754 194.229 120.609 194.08 120.434 194.08C120.245 194.08 120.114 194.229 120.114 194.408C120.114 194.588 120.26 194.752 120.434 194.752Z" fill="black" fill-opacity="0.5"/>
<path d="M115.21 187.536C115.428 187.536 115.603 187.357 115.603 187.133C115.603 186.909 115.428 186.729 115.21 186.729C114.992 186.729 114.817 186.909 114.817 187.133C114.817 187.357 114.992 187.536 115.21 187.536Z" fill="black" fill-opacity="0.5"/>
<path d="M110.321 179.657C110.51 179.657 110.641 179.508 110.641 179.329C110.641 179.149 110.496 179 110.321 179C110.147 179 110.001 179.149 110.001 179.329C109.986 179.508 110.132 179.657 110.321 179.657Z" fill="black" fill-opacity="0.5"/>
<path d="M106.406 171.819C106.595 171.819 106.74 171.67 106.74 171.491C106.74 171.312 106.595 171.162 106.406 171.162C106.231 171.162 106.085 171.312 106.085 171.491C106.071 171.67 106.231 171.819 106.406 171.819Z" fill="black" fill-opacity="0.5"/>
<path d="M102.884 163.5C103.044 163.5 103.175 163.365 103.175 163.201C103.175 163.037 103.044 162.902 102.884 162.902C102.724 162.902 102.593 163.037 102.593 163.201C102.593 163.365 102.724 163.5 102.884 163.5Z" fill="black" fill-opacity="0.5"/>
<path d="M99.9739 155.002C100.149 155.002 100.294 154.853 100.294 154.673C100.294 154.494 100.149 154.345 99.9739 154.345C99.7848 154.345 99.6538 154.494 99.6538 154.673C99.6538 154.853 99.7993 155.002 99.9739 155.002Z" fill="black" fill-opacity="0.5"/>
<path d="M97.6887 146.258C97.8633 146.258 98.0088 146.108 98.0088 145.929C98.0088 145.75 97.8633 145.585 97.6887 145.585C97.4995 145.585 97.3685 145.735 97.3685 145.929C97.3685 146.108 97.514 146.258 97.6887 146.258Z" fill="black" fill-opacity="0.5"/>
<path d="M96.0587 137.337C96.2188 137.337 96.3498 137.202 96.3498 137.038C96.3498 136.874 96.2188 136.739 96.0587 136.739C95.8987 136.739 95.7677 136.874 95.7677 137.038C95.7677 137.202 95.8987 137.337 96.0587 137.337Z" fill="black" fill-opacity="0.5"/>
<path d="M95.0692 128.365C95.2293 128.365 95.3603 128.231 95.3603 128.066C95.3603 127.902 95.2293 127.768 95.0692 127.768C94.9092 127.768 94.7782 127.902 94.7782 128.066C94.7782 128.231 94.9092 128.365 95.0692 128.365Z" fill="black" fill-opacity="0.5"/>
<path d="M94.7351 119.219C94.8515 119.219 94.9388 119.129 94.9388 119.024C94.9388 118.92 94.8515 118.83 94.7351 118.83C94.6332 118.83 94.5459 118.92 94.5459 119.024C94.5459 119.129 94.6332 119.219 94.7351 119.219Z" fill="black" fill-opacity="0.5"/>
<path d="M95.0728 110.126C95.1473 110.126 95.2069 110.065 95.2069 109.988C95.2069 109.911 95.1473 109.85 95.0728 109.85C94.9983 109.85 94.9387 109.911 94.9387 109.988C94.9387 110.065 94.9983 110.126 95.0728 110.126Z" fill="black" fill-opacity="0.5"/>
<path d="M96.0618 101.135C96.1363 101.135 96.1959 101.074 96.1959 100.997C96.1959 100.921 96.1363 100.859 96.0618 100.859C95.9873 100.859 95.9277 100.921 95.9277 100.997C95.9277 101.074 95.9873 101.135 96.0618 101.135Z" fill="black" fill-opacity="0.5"/>
<path d="M97.6907 92.2142C97.7503 92.2142 97.795 92.1682 97.795 92.1068C97.795 92.0455 97.7503 91.9995 97.6907 91.9995C97.6311 91.9995 97.5864 92.0455 97.5864 92.1068C97.5864 92.1682 97.646 92.2142 97.6907 92.2142Z" fill="black" fill-opacity="0.5"/>
<path d="M99.9749 83.413C99.9903 83.413 100.006 83.397 100.006 83.3811C100.006 83.3651 99.9903 83.3491 99.9749 83.3491C99.9594 83.3491 99.944 83.3651 99.944 83.3811C99.944 83.397 99.9594 83.413 99.9749 83.413Z" fill="black" fill-opacity="0.5"/>
<path d="M102.886 74.8802C102.901 74.8802 102.917 74.8643 102.917 74.8483C102.917 74.8324 102.901 74.8164 102.886 74.8164C102.87 74.8164 102.855 74.8324 102.855 74.8483C102.855 74.8643 102.87 74.8802 102.886 74.8802Z" fill="black" fill-opacity="0.5"/>
<path d="M106.408 66.5873C106.424 66.5873 106.439 66.5713 106.439 66.5554C106.439 66.5394 106.424 66.5234 106.408 66.5234C106.393 66.5234 106.377 66.5394 106.377 66.5554C106.377 66.5713 106.393 66.5873 106.408 66.5873Z" fill="black" fill-opacity="0.5"/>
<path d="M110.526 58.5985C110.541 58.5985 110.557 58.5825 110.557 58.5666C110.557 58.5506 110.541 58.5347 110.526 58.5347C110.51 58.5347 110.495 58.5506 110.495 58.5666C110.495 58.5825 110.51 58.5985 110.526 58.5985Z" fill="black" fill-opacity="0.5"/>
<path d="M115.212 50.9525C115.227 50.9525 115.243 50.9366 115.243 50.9206C115.243 50.9046 115.227 50.8887 115.212 50.8887C115.196 50.8887 115.181 50.9046 115.181 50.9206C115.181 50.9366 115.196 50.9525 115.212 50.9525Z" fill="black" fill-opacity="0.5"/>
<path d="M120.436 43.6703C120.451 43.6703 120.467 43.6543 120.467 43.6384C120.467 43.6224 120.451 43.6064 120.436 43.6064C120.42 43.6064 120.405 43.6224 120.405 43.6384C120.405 43.6543 120.42 43.6703 120.436 43.6703Z" fill="black" fill-opacity="0.5"/>
<path d="M126.185 36.8173C126.2 36.8173 126.216 36.8013 126.216 36.7853C126.216 36.7694 126.2 36.7534 126.185 36.7534C126.169 36.7534 126.154 36.7694 126.154 36.7853C126.154 36.8013 126.169 36.8173 126.185 36.8173Z" fill="black" fill-opacity="0.5"/>
<path d="M132.412 30.4193C132.428 30.4193 132.443 30.4034 132.443 30.3874C132.443 30.3714 132.428 30.3555 132.412 30.3555C132.397 30.3555 132.382 30.3714 132.382 30.3874C132.382 30.4034 132.397 30.4193 132.412 30.4193Z" fill="black" fill-opacity="0.5"/>
<path d="M139.091 24.5189C139.107 24.5189 139.122 24.503 139.122 24.487C139.122 24.471 139.107 24.4551 139.091 24.4551C139.076 24.4551 139.06 24.471 139.06 24.487C139.06 24.503 139.076 24.5189 139.091 24.5189Z" fill="black" fill-opacity="0.5"/>
<path d="M143.703 230.637C144.402 230.637 144.984 230.055 144.984 229.323C144.984 228.605 144.416 228.008 143.703 228.008C143.005 228.008 142.423 228.59 142.423 229.323C142.437 230.055 143.005 230.637 143.703 230.637Z" fill="black" fill-opacity="0.5"/>
<path d="M136.457 225.795C137.33 225.795 138.028 225.078 138.028 224.181C138.028 223.3 137.33 222.568 136.457 222.568C135.598 222.568 134.885 223.285 134.885 224.181C134.885 225.078 135.598 225.795 136.457 225.795Z" fill="black" fill-opacity="0.5"/>
<path d="M129.573 219.419C130.039 219.419 130.417 219.03 130.417 218.552C130.417 218.074 130.039 217.686 129.573 217.686C129.107 217.686 128.729 218.074 128.729 218.552C128.729 219.03 129.107 219.419 129.573 219.419Z" fill="black" fill-opacity="0.5"/>
<path d="M123.083 213.308C123.548 213.308 123.927 212.92 123.927 212.442C123.927 211.964 123.548 211.575 123.083 211.575C122.617 211.575 122.239 211.964 122.239 212.442C122.239 212.92 122.617 213.308 123.083 213.308Z" fill="black" fill-opacity="0.5"/>
<path d="M117.015 206.587C117.393 206.587 117.699 206.274 117.699 205.885C117.699 205.497 117.393 205.183 117.015 205.183C116.637 205.183 116.331 205.497 116.331 205.885C116.331 206.274 116.637 206.587 117.015 206.587Z" fill="black" fill-opacity="0.5"/>
<path d="M111.412 199.55C111.746 199.55 112.037 199.267 112.037 198.908C112.037 198.564 111.761 198.266 111.412 198.266C111.062 198.266 110.786 198.549 110.786 198.908C110.786 199.267 111.062 199.55 111.412 199.55Z" fill="black" fill-opacity="0.5"/>
<path d="M106.275 192.199C106.624 192.199 106.901 191.915 106.901 191.556C106.901 191.198 106.624 190.914 106.275 190.914C105.94 190.914 105.649 191.198 105.649 191.556C105.664 191.915 105.94 192.199 106.275 192.199Z" fill="black" fill-opacity="0.5"/>
<path d="M101.662 184.591C102.055 184.591 102.375 184.263 102.375 183.859C102.375 183.456 102.055 183.112 101.662 183.112C101.269 183.112 100.949 183.441 100.949 183.859C100.935 184.263 101.255 184.591 101.662 184.591Z" fill="black" fill-opacity="0.5"/>
<path d="M97.5581 176.363C97.8346 176.363 98.0529 176.138 98.0529 175.855C98.0529 175.571 97.8346 175.347 97.5581 175.347C97.2816 175.347 97.0634 175.571 97.0634 175.855C97.0779 176.138 97.2962 176.363 97.5581 176.363Z" fill="black" fill-opacity="0.5"/>
<path d="M94.0218 167.906C94.1964 167.906 94.342 167.757 94.342 167.577C94.342 167.398 94.1964 167.249 94.0218 167.249C93.8326 167.249 93.7017 167.398 93.7017 167.577C93.7017 167.757 93.8326 167.906 94.0218 167.906Z" fill="black" fill-opacity="0.5"/>
<path d="M91.0382 159.464C91.2565 159.464 91.4311 159.285 91.4311 159.061C91.4311 158.837 91.2565 158.657 91.0382 158.657C90.8199 158.657 90.6453 158.837 90.6453 159.061C90.6453 159.285 90.8199 159.464 91.0382 159.464Z" fill="black" fill-opacity="0.5"/>
<path d="M88.6374 150.772C88.8557 150.772 89.0303 150.592 89.0303 150.368C89.0303 150.144 88.8557 149.965 88.6374 149.965C88.4191 149.965 88.2445 150.144 88.2445 150.368C88.2445 150.592 88.4191 150.772 88.6374 150.772Z" fill="black" fill-opacity="0.5"/>
<path d="M86.8183 141.926C87.0366 141.926 87.2112 141.747 87.2112 141.523C87.2112 141.298 87.0366 141.119 86.8183 141.119C86.6 141.119 86.4254 141.298 86.4254 141.523C86.4254 141.747 86.6 141.926 86.8183 141.926Z" fill="black" fill-opacity="0.5"/>
<path d="M85.6107 132.906C85.7853 132.906 85.9308 132.756 85.9308 132.577C85.9308 132.398 85.7853 132.249 85.6107 132.249C85.4215 132.249 85.2905 132.398 85.2905 132.577C85.2905 132.756 85.4361 132.906 85.6107 132.906Z" fill="black" fill-opacity="0.5"/>
<path d="M84.9991 123.743C85.101 123.743 85.1883 123.653 85.1883 123.549C85.1883 123.444 85.101 123.354 84.9991 123.354C84.8973 123.354 84.8099 123.444 84.8099 123.549C84.8099 123.653 84.8973 123.743 84.9991 123.743Z" fill="black" fill-opacity="0.5"/>
<path d="M85 114.794C85.1601 114.794 85.2911 114.659 85.2911 114.495C85.2911 114.331 85.1601 114.196 85 114.196C84.84 114.196 84.709 114.331 84.709 114.495C84.709 114.659 84.84 114.794 85 114.794Z" fill="black" fill-opacity="0.5"/>
<path d="M85.6108 105.77C85.7708 105.77 85.9018 105.635 85.9018 105.471C85.9018 105.307 85.7708 105.172 85.6108 105.172C85.4507 105.172 85.3197 105.307 85.3197 105.471C85.3197 105.635 85.4507 105.77 85.6108 105.77Z" fill="black" fill-opacity="0.5"/>
<path d="M86.8222 96.6696C86.8967 96.6696 86.9563 96.6083 86.9563 96.5316C86.9563 96.4549 86.8967 96.3936 86.8222 96.3936C86.7477 96.3936 86.6881 96.4549 86.6881 96.5316C86.6881 96.6083 86.7477 96.6696 86.8222 96.6696Z" fill="black" fill-opacity="0.5"/>
<path d="M88.6371 87.8755C88.7389 87.8755 88.8262 87.7859 88.8262 87.6813C88.8262 87.5618 88.7389 87.4722 88.6371 87.4722C88.5352 87.4722 88.4479 87.5618 88.4479 87.6813C88.4333 87.7859 88.5206 87.8755 88.6371 87.8755Z" fill="black" fill-opacity="0.5"/>
<path d="M91.0422 79.1149C91.1167 79.1149 91.1763 79.0535 91.1763 78.9769C91.1763 78.9002 91.1167 78.8389 91.0422 78.8389C90.9677 78.8389 90.9081 78.9002 90.9081 78.9769C90.9081 79.0535 90.9677 79.1149 91.0422 79.1149Z" fill="black" fill-opacity="0.5"/>
<path d="M94.0239 70.5009C94.0394 70.5009 94.0548 70.4849 94.0548 70.4689C94.0548 70.453 94.0394 70.437 94.0239 70.437C94.0085 70.437 93.993 70.453 93.993 70.4689C93.9775 70.4849 93.993 70.5009 94.0239 70.5009Z" fill="black" fill-opacity="0.5"/>
<path d="M97.5596 62.2245C97.5751 62.2245 97.5905 62.2085 97.5905 62.1926C97.5905 62.1766 97.5751 62.1606 97.5596 62.1606C97.5441 62.1606 97.5287 62.1766 97.5287 62.1926C97.5287 62.2085 97.5441 62.2245 97.5596 62.2245Z" fill="black" fill-opacity="0.5"/>
<path d="M101.664 54.2796C101.724 54.2796 101.768 54.2336 101.768 54.1723C101.768 54.1109 101.724 54.0649 101.664 54.0649C101.605 54.0649 101.56 54.1109 101.56 54.1723C101.56 54.2336 101.605 54.2796 101.664 54.2796Z" fill="black" fill-opacity="0.5"/>
<path d="M106.277 46.5872C106.337 46.5872 106.381 46.5412 106.381 46.4799C106.381 46.4186 106.337 46.3726 106.277 46.3726C106.218 46.3726 106.173 46.4186 106.173 46.4799C106.173 46.5412 106.218 46.5872 106.277 46.5872Z" fill="black" fill-opacity="0.5"/>
<path d="M111.415 39.2711C111.489 39.2711 111.549 39.2098 111.549 39.1331C111.549 39.0564 111.489 38.9951 111.415 38.9951C111.34 38.9951 111.281 39.0564 111.281 39.1331C111.281 39.2098 111.34 39.2711 111.415 39.2711Z" fill="black" fill-opacity="0.5"/>
<path d="M117.017 32.2591C117.077 32.2591 117.122 32.2131 117.122 32.1518C117.122 32.0904 117.077 32.0444 117.017 32.0444C116.958 32.0444 116.913 32.0904 116.913 32.1518C116.913 32.2131 116.958 32.2591 117.017 32.2591Z" fill="black" fill-opacity="0.5"/>
<path d="M123.085 25.7054C123.145 25.7054 123.189 25.6594 123.189 25.5981C123.189 25.5367 123.145 25.4907 123.085 25.4907C123.025 25.4907 122.981 25.5367 122.981 25.5981C122.981 25.6594 123.025 25.7054 123.085 25.7054Z" fill="black" fill-opacity="0.5"/>
<path d="M129.575 19.5945C129.635 19.5945 129.68 19.5485 129.68 19.4872C129.68 19.4259 129.635 19.3799 129.575 19.3799C129.516 19.3799 129.471 19.4259 129.471 19.4872C129.471 19.5485 129.516 19.5945 129.575 19.5945Z" fill="black" fill-opacity="0.5"/>
<path d="M136.458 13.8812C136.473 13.8812 136.489 13.8653 136.489 13.8493C136.489 13.8333 136.473 13.8174 136.458 13.8174C136.442 13.8174 136.427 13.8333 136.427 13.8493C136.427 13.8653 136.442 13.8812 136.458 13.8812Z" fill="black" fill-opacity="0.5"/>
<path d="M143.705 8.74744C143.72 8.74744 143.736 8.73148 143.736 8.71552C143.736 8.69956 143.72 8.68359 143.705 8.68359C143.689 8.68359 143.674 8.69956 143.674 8.71552C143.674 8.73148 143.689 8.74744 143.705 8.74744Z" fill="black" fill-opacity="0.5"/>
<path d="M141.287 241.666C142.364 241.666 143.252 240.77 143.252 239.65C143.252 238.544 142.379 237.633 141.287 237.633C140.21 237.633 139.323 238.529 139.323 239.65C139.337 240.77 140.21 241.666 141.287 241.666Z" fill="black" fill-opacity="0.5"/>
<path d="M133.91 236.838C135.045 236.838 135.962 235.897 135.962 234.732C135.962 233.567 135.045 232.625 133.91 232.625C132.775 232.625 131.858 233.567 131.858 234.732C131.858 235.882 132.775 236.838 133.91 236.838Z" fill="black" fill-opacity="0.5"/>
<path d="M126.852 231.166C127.842 231.166 128.642 230.345 128.642 229.329C128.642 228.313 127.842 227.491 126.852 227.491C125.863 227.491 125.062 228.313 125.062 229.329C125.048 230.33 125.863 231.166 126.852 231.166Z" fill="black" fill-opacity="0.5"/>
<path d="M120.143 225.399C121.191 225.399 122.035 224.533 122.035 223.457C122.035 222.382 121.191 221.515 120.143 221.515C119.095 221.515 118.251 222.382 118.251 223.457C118.251 224.533 119.095 225.399 120.143 225.399Z" fill="black" fill-opacity="0.5"/>
<path d="M113.813 218.436C114.497 218.436 115.05 217.868 115.05 217.166C115.05 216.464 114.497 215.896 113.813 215.896C113.129 215.896 112.576 216.464 112.576 217.166C112.576 217.868 113.129 218.436 113.813 218.436Z" fill="black" fill-opacity="0.5"/>
<path d="M107.89 211.527C108.472 211.527 108.937 211.049 108.937 210.452C108.937 209.854 108.472 209.376 107.89 209.376C107.307 209.376 106.842 209.854 106.842 210.452C106.842 211.049 107.307 211.527 107.89 211.527Z" fill="black" fill-opacity="0.5"/>
<path d="M102.403 204.465C102.985 204.465 103.451 203.987 103.451 203.389C103.451 202.792 102.985 202.313 102.403 202.313C101.821 202.313 101.356 202.792 101.356 203.389C101.356 203.987 101.821 204.465 102.403 204.465Z" fill="black" fill-opacity="0.5"/>
<path d="M97.3542 196.922C97.8635 196.922 98.271 196.504 98.271 195.981C98.271 195.458 97.8635 195.04 97.3542 195.04C96.8448 195.04 96.4374 195.458 96.4374 195.981C96.4519 196.504 96.8594 196.922 97.3542 196.922Z" fill="black" fill-opacity="0.5"/>
<path d="M92.7992 188.99C93.1922 188.99 93.5123 188.661 93.5123 188.257C93.5123 187.854 93.1922 187.525 92.7992 187.525C92.4063 187.525 92.0862 187.854 92.0862 188.257C92.0862 188.661 92.3918 188.99 92.7992 188.99Z" fill="black" fill-opacity="0.5"/>
<path d="M88.7254 181.067C89.1765 181.067 89.5403 180.694 89.5403 180.231C89.5403 179.768 89.1765 179.394 88.7254 179.394C88.2743 179.394 87.9104 179.768 87.9104 180.231C87.8959 180.694 88.2743 181.067 88.7254 181.067Z" fill="black" fill-opacity="0.5"/>
<path d="M85.1597 172.793C85.6108 172.793 85.9746 172.42 85.9746 171.957C85.9746 171.494 85.6108 171.12 85.1597 171.12C84.7085 171.12 84.3447 171.494 84.3447 171.957C84.3447 172.42 84.7085 172.793 85.1597 172.793Z" fill="black" fill-opacity="0.5"/>
<path d="M82.1181 164.337C82.5838 164.337 82.9621 163.949 82.9621 163.471C82.9621 162.992 82.5838 162.604 82.1181 162.604C81.6524 162.604 81.2741 162.992 81.2741 163.471C81.2595 163.949 81.6379 164.337 82.1181 164.337Z" fill="black" fill-opacity="0.5"/>
<path d="M79.6004 155.434C79.9496 155.434 80.2261 155.15 80.2261 154.791C80.2261 154.433 79.9496 154.149 79.6004 154.149C79.2657 154.149 78.9746 154.433 78.9746 154.791C78.9892 155.15 79.2657 155.434 79.6004 155.434Z" fill="black" fill-opacity="0.5"/>
<path d="M77.6511 146.585C77.9725 146.585 78.2331 146.318 78.2331 145.988C78.2331 145.658 77.9725 145.39 77.6511 145.39C77.3296 145.39 77.069 145.658 77.069 145.988C77.069 146.318 77.3296 146.585 77.6511 146.585Z" fill="black" fill-opacity="0.5"/>
<path d="M76.2384 137.764C76.6168 137.764 76.9224 137.45 76.9224 137.062C76.9224 136.673 76.6168 136.359 76.2384 136.359C75.86 136.359 75.5544 136.673 75.5544 137.062C75.5544 137.45 75.86 137.764 76.2384 137.764Z" fill="black" fill-opacity="0.5"/>
<path d="M75.3953 128.598C75.6864 128.598 75.9192 128.359 75.9192 128.06C75.9192 127.761 75.6864 127.522 75.3953 127.522C75.1043 127.522 74.8715 127.761 74.8715 128.06C74.8715 128.359 75.1043 128.598 75.3953 128.598Z" fill="black" fill-opacity="0.5"/>
<path d="M75.1181 119.516C75.3946 119.516 75.6128 119.292 75.6128 119.008C75.6128 118.725 75.3946 118.5 75.1181 118.5C74.8416 118.5 74.6233 118.725 74.6233 119.008C74.6233 119.292 74.8416 119.516 75.1181 119.516Z" fill="black" fill-opacity="0.5"/>
<path d="M75.3949 110.418C75.6277 110.418 75.8169 110.224 75.8169 109.985C75.8169 109.746 75.6277 109.552 75.3949 109.552C75.1621 109.552 74.9729 109.746 74.9729 109.985C74.9729 110.224 75.1621 110.418 75.3949 110.418Z" fill="black" fill-opacity="0.5"/>
<path d="M76.2393 101.413C76.4721 101.413 76.6613 101.219 76.6613 100.98C76.6613 100.741 76.4721 100.546 76.2393 100.546C76.0064 100.546 75.8173 100.741 75.8173 100.98C75.8173 101.219 76.0064 101.413 76.2393 101.413Z" fill="black" fill-opacity="0.5"/>
<path d="M77.651 92.3834C77.8256 92.3834 77.9712 92.234 77.9712 92.0547C77.9712 91.8755 77.8256 91.7261 77.651 91.7261C77.4618 91.7261 77.3308 91.8755 77.3308 92.0547C77.3163 92.234 77.4618 92.3834 77.651 92.3834Z" fill="black" fill-opacity="0.5"/>
<path d="M79.601 83.4392C79.7029 83.4392 79.7902 83.3496 79.7902 83.245C79.7902 83.1404 79.7029 83.0508 79.601 83.0508C79.4992 83.0508 79.4119 83.1404 79.4119 83.245C79.4119 83.3496 79.4992 83.4392 79.601 83.4392Z" fill="black" fill-opacity="0.5"/>
<path d="M82.1187 74.8903C82.2955 74.8903 82.4389 74.7431 82.4389 74.5616C82.4389 74.3801 82.2955 74.2329 82.1187 74.2329C81.9419 74.2329 81.7986 74.3801 81.7986 74.5616C81.7986 74.7431 81.9419 74.8903 82.1187 74.8903Z" fill="black" fill-opacity="0.5"/>
<path d="M85.1623 66.2238C85.2368 66.2238 85.2964 66.1624 85.2964 66.0858C85.2964 66.0091 85.2368 65.9478 85.1623 65.9478C85.0878 65.9478 85.0282 66.0091 85.0282 66.0858C85.0282 66.1624 85.0878 66.2238 85.1623 66.2238Z" fill="black" fill-opacity="0.5"/>
<path d="M88.7253 58.0137C88.8272 58.0137 88.9145 57.9241 88.9145 57.8195C88.9145 57.7 88.8272 57.6104 88.7253 57.6104C88.6234 57.6104 88.5361 57.7 88.5361 57.8195C88.5216 57.9241 88.6089 58.0137 88.7253 58.0137Z" fill="black" fill-opacity="0.5"/>
<path d="M92.8024 49.9066C92.862 49.9066 92.9067 49.8606 92.9067 49.7992C92.9067 49.7379 92.862 49.6919 92.8024 49.6919C92.7428 49.6919 92.6981 49.7379 92.6981 49.7992C92.6981 49.8606 92.7428 49.9066 92.8024 49.9066Z" fill="black" fill-opacity="0.5"/>
<path d="M97.3541 42.2681C97.456 42.2681 97.5433 42.1785 97.5433 42.0739C97.5433 41.9544 97.456 41.8647 97.3541 41.8647C97.2522 41.8647 97.1649 41.9544 97.1649 42.0739C97.1649 42.1785 97.2522 42.2681 97.3541 42.2681Z" fill="black" fill-opacity="0.5"/>
<path d="M102.407 34.7906C102.481 34.7906 102.541 34.7293 102.541 34.6526C102.541 34.576 102.481 34.5146 102.407 34.5146C102.332 34.5146 102.273 34.576 102.273 34.6526C102.273 34.7293 102.332 34.7906 102.407 34.7906Z" fill="black" fill-opacity="0.5"/>
<path d="M107.893 27.6732C107.952 27.6732 107.997 27.6272 107.997 27.5658C107.997 27.5045 107.952 27.4585 107.893 27.4585C107.833 27.4585 107.788 27.5045 107.788 27.5658C107.788 27.6272 107.833 27.6732 107.893 27.6732Z" fill="black" fill-opacity="0.5"/>
<path d="M113.815 20.9774C113.875 20.9774 113.92 20.9314 113.92 20.87C113.92 20.8087 113.875 20.7627 113.815 20.7627C113.756 20.7627 113.711 20.8087 113.711 20.87C113.711 20.9314 113.756 20.9774 113.815 20.9774Z" fill="black" fill-opacity="0.5"/>
<path d="M120.145 14.6293C120.16 14.6293 120.176 14.6133 120.176 14.5974C120.176 14.5814 120.16 14.5654 120.145 14.5654C120.129 14.5654 120.114 14.5814 120.114 14.5974C120.114 14.6133 120.129 14.6293 120.145 14.6293Z" fill="black" fill-opacity="0.5"/>
<path d="M146.671 256.81C148.083 256.81 149.218 255.645 149.218 254.195C149.218 252.746 148.083 251.581 146.671 251.581C145.26 251.581 144.125 252.746 144.125 254.195C144.125 255.645 145.26 256.81 146.671 256.81Z" fill="black" fill-opacity="0.5"/>
<path d="M138.915 252.272C140.181 252.272 141.2 251.226 141.2 249.927C141.2 248.627 140.181 247.581 138.915 247.581C137.649 247.581 136.631 248.642 136.631 249.927C136.616 251.211 137.649 252.272 138.915 252.272Z" fill="black" fill-opacity="0.5"/>
<path d="M131.421 247.636C132.76 247.636 133.837 246.531 133.837 245.156C133.837 243.782 132.76 242.676 131.421 242.676C130.082 242.676 129.005 243.782 129.005 245.156C129.005 246.531 130.082 247.636 131.421 247.636Z" fill="black" fill-opacity="0.5"/>
<path d="M124.218 242.201C125.423 242.201 126.401 241.198 126.401 239.96C126.401 238.723 125.423 237.719 124.218 237.719C123.012 237.719 122.035 238.723 122.035 239.96C122.035 241.198 123.012 242.201 124.218 242.201Z" fill="black" fill-opacity="0.5"/>
<path d="M117.334 237.036C118.789 237.036 119.983 235.826 119.983 234.317C119.983 232.823 118.804 231.598 117.334 231.598C115.864 231.598 114.686 232.808 114.686 234.317C114.686 235.826 115.864 237.036 117.334 237.036Z" fill="black" fill-opacity="0.5"/>
<path d="M110.786 230.746C112.125 230.746 113.202 229.64 113.202 228.266C113.202 226.891 112.125 225.786 110.786 225.786C109.447 225.786 108.371 226.891 108.371 228.266C108.356 229.64 109.447 230.746 110.786 230.746Z" fill="black" fill-opacity="0.5"/>
<path d="M104.602 224.301C105.94 224.301 107.017 223.196 107.017 221.821C107.017 220.447 105.94 219.341 104.602 219.341C103.263 219.341 102.186 220.447 102.186 221.821C102.186 223.196 103.263 224.301 104.602 224.301Z" fill="black" fill-opacity="0.5"/>
<path d="M98.7951 216.786C99.7555 216.786 100.527 215.994 100.527 215.008C100.527 214.022 99.7555 213.23 98.7951 213.23C97.8346 213.23 97.0634 214.022 97.0634 215.008C97.0779 215.994 97.8492 216.786 98.7951 216.786Z" fill="black" fill-opacity="0.5"/>
<path d="M93.4108 209.307C94.1821 209.307 94.8224 208.665 94.8224 207.873C94.8224 207.081 94.1966 206.439 93.4108 206.439C92.6395 206.439 92.0138 207.081 92.0138 207.873C92.0138 208.665 92.6395 209.307 93.4108 209.307Z" fill="black" fill-opacity="0.5"/>
<path d="M88.448 201.928C89.2758 201.928 89.9469 201.239 89.9469 200.389C89.9469 199.539 89.2758 198.85 88.448 198.85C87.6202 198.85 86.9491 199.539 86.9491 200.389C86.9491 201.239 87.6202 201.928 88.448 201.928Z" fill="black" fill-opacity="0.5"/>
<path d="M83.9368 194.17C84.7663 194.17 85.4357 193.483 85.4357 192.631C85.4357 191.78 84.7663 191.092 83.9368 191.092C83.1074 191.092 82.438 191.78 82.438 192.631C82.4234 193.483 83.1074 194.17 83.9368 194.17Z" fill="black" fill-opacity="0.5"/>
<path d="M79.8769 185.912C80.5754 185.912 81.1575 185.329 81.1575 184.597C81.1575 183.88 80.59 183.282 79.8769 183.282C79.1784 183.282 78.5963 183.865 78.5963 184.597C78.5963 185.329 79.1784 185.912 79.8769 185.912Z" fill="black" fill-opacity="0.5"/>
<path d="M76.2975 177.411C76.8796 177.411 77.3453 176.933 77.3453 176.335C77.3453 175.738 76.8796 175.26 76.2975 175.26C75.7154 175.26 75.2498 175.738 75.2498 176.335C75.2498 176.933 75.7154 177.411 76.2975 177.411Z" fill="black" fill-opacity="0.5"/>
<path d="M73.1979 168.742C73.6636 168.742 74.0419 168.354 74.0419 167.876C74.0419 167.398 73.6636 167.009 73.1979 167.009C72.7322 167.009 72.3539 167.398 72.3539 167.876C72.3539 168.354 72.7322 168.742 73.1979 168.742Z" fill="black" fill-opacity="0.5"/>
<path d="M70.6068 160.3C71.1889 160.3 71.6546 159.822 71.6546 159.225C71.6546 158.627 71.1889 158.149 70.6068 158.149C70.0248 158.149 69.5591 158.627 69.5591 159.225C69.5591 159.822 70.0248 160.3 70.6068 160.3Z" fill="black" fill-opacity="0.5"/>
<path d="M68.5121 151.141C68.8904 151.141 69.196 150.827 69.196 150.438C69.196 150.05 68.8904 149.736 68.5121 149.736C68.1337 149.736 67.8281 150.05 67.8281 150.438C67.8281 150.827 68.1337 151.141 68.5121 151.141Z" fill="black" fill-opacity="0.5"/>
<path d="M66.9397 142.255C67.318 142.255 67.6236 141.942 67.6236 141.553C67.6236 141.165 67.318 140.851 66.9397 140.851C66.5613 140.851 66.2557 141.165 66.2557 141.553C66.2557 141.927 66.5613 142.255 66.9397 142.255Z" fill="black" fill-opacity="0.5"/>
<path d="M65.8927 133.307C66.2856 133.307 66.6058 132.979 66.6058 132.575C66.6058 132.172 66.2856 131.843 65.8927 131.843C65.4998 131.843 65.1797 132.172 65.1797 132.575C65.1651 132.979 65.4998 133.307 65.8927 133.307Z" fill="black" fill-opacity="0.5"/>
<path d="M65.3688 124.251C65.7471 124.251 66.0527 123.937 66.0527 123.549C66.0527 123.16 65.7471 122.847 65.3688 122.847C64.9904 122.847 64.6848 123.16 64.6848 123.549C64.6848 123.922 64.9904 124.251 65.3688 124.251Z" fill="black" fill-opacity="0.5"/>
<path d="M65.3689 115.141C65.7182 115.141 65.9946 114.857 65.9946 114.498C65.9946 114.155 65.7182 113.856 65.3689 113.856C65.0196 113.856 64.7432 114.14 64.7432 114.498C64.7432 114.857 65.0196 115.141 65.3689 115.141Z" fill="black" fill-opacity="0.5"/>
<path d="M65.8925 105.968C66.169 105.968 66.3873 105.743 66.3873 105.46C66.3873 105.176 66.169 104.952 65.8925 104.952C65.616 104.952 65.3977 105.176 65.3977 105.46C65.3977 105.743 65.616 105.968 65.8925 105.968Z" fill="black" fill-opacity="0.5"/>
<path d="M66.9401 97.0283C67.2312 97.0283 67.464 96.7892 67.464 96.4905C67.464 96.1917 67.2312 95.9526 66.9401 95.9526C66.6491 95.9526 66.4163 96.1917 66.4163 96.4905C66.4163 96.7892 66.6491 97.0283 66.9401 97.0283Z" fill="black" fill-opacity="0.5"/>
<path d="M68.512 88.0974C68.7885 88.0974 69.0068 87.8733 69.0068 87.5895C69.0068 87.3056 68.7885 87.0815 68.512 87.0815C68.2355 87.0815 68.0172 87.3056 68.0172 87.5895C68.0172 87.8733 68.25 88.0974 68.512 88.0974Z" fill="black" fill-opacity="0.5"/>
<path d="M70.6068 79.3133C70.8833 79.3133 71.1016 79.0892 71.1016 78.8053C71.1016 78.5215 70.8833 78.2974 70.6068 78.2974C70.3303 78.2974 70.1121 78.5215 70.1121 78.8053C70.1121 79.0892 70.3303 79.3133 70.6068 79.3133Z" fill="black" fill-opacity="0.5"/>
<path d="M73.1978 70.4979C73.387 70.4979 73.518 70.3486 73.518 70.1543C73.518 69.9601 73.3725 69.8257 73.1978 69.8257C73.0232 69.8257 72.8777 69.9751 72.8777 70.1543C72.8777 70.3336 73.0232 70.4979 73.1978 70.4979Z" fill="black" fill-opacity="0.5"/>
<path d="M76.2971 62.1017C76.5154 62.1017 76.69 61.9224 76.69 61.6983C76.69 61.4742 76.5154 61.2949 76.2971 61.2949C76.0788 61.2949 75.9042 61.4742 75.9042 61.6983C75.9042 61.9224 76.0788 62.1017 76.2971 62.1017Z" fill="black" fill-opacity="0.5"/>
<path d="M79.8773 54.0355C80.1974 54.0355 80.4594 53.7666 80.4594 53.4379C80.4594 53.1092 80.1974 52.8403 79.8773 52.8403C79.5571 52.8403 79.2952 53.1092 79.2952 53.4379C79.2952 53.7666 79.5571 54.0355 79.8773 54.0355Z" fill="black" fill-opacity="0.5"/>
<path d="M83.9374 45.7143C84.0975 45.7143 84.2285 45.5798 84.2285 45.4155C84.2285 45.2512 84.0975 45.1167 83.9374 45.1167C83.7773 45.1167 83.6464 45.2512 83.6464 45.4155C83.6464 45.5798 83.7773 45.7143 83.9374 45.7143Z" fill="black" fill-opacity="0.5"/>
<path d="M88.4488 37.9457C88.6088 37.9457 88.7398 37.8113 88.7398 37.6469C88.7398 37.4826 88.6088 37.3481 88.4488 37.3481C88.2887 37.3481 88.1577 37.4826 88.1577 37.6469C88.1577 37.8113 88.2887 37.9457 88.4488 37.9457Z" fill="black" fill-opacity="0.5"/>
<path d="M93.4131 30.2889C93.4727 30.2889 93.5174 30.2429 93.5174 30.1816C93.5174 30.1202 93.4727 30.0742 93.4131 30.0742C93.3535 30.0742 93.3088 30.1202 93.3088 30.1816C93.3237 30.2429 93.3684 30.2889 93.4131 30.2889Z" fill="black" fill-opacity="0.5"/>
<path d="M98.8123 23.1598C98.8868 23.1598 98.9464 23.0985 98.9464 23.0218C98.9464 22.9451 98.8868 22.8838 98.8123 22.8838C98.7378 22.8838 98.6782 22.9451 98.6782 23.0218C98.6782 23.0985 98.7378 23.1598 98.8123 23.1598Z" fill="black" fill-opacity="0.5"/>
<path d="M144.387 266.895C145.799 266.895 146.934 265.73 146.934 264.28C146.934 262.831 145.799 261.666 144.387 261.666C142.976 261.666 141.841 262.831 141.841 264.28C141.841 265.715 142.976 266.895 144.387 266.895Z" fill="black" fill-opacity="0.5"/>
<path d="M136.558 262.744C137.955 262.744 139.105 261.578 139.105 260.129C139.105 258.68 137.97 257.515 136.558 257.515C135.147 257.515 134.012 258.68 134.012 260.129C134.012 261.578 135.161 262.744 136.558 262.744Z" fill="black" fill-opacity="0.5"/>
<path d="M128.976 258.354C130.49 258.354 131.712 257.099 131.712 255.545C131.712 253.991 130.49 252.736 128.976 252.736C127.463 252.736 126.24 253.991 126.24 255.545C126.226 257.084 127.463 258.354 128.976 258.354Z" fill="black" fill-opacity="0.5"/>
<path d="M121.642 252.993C122.98 252.993 124.057 251.887 124.057 250.513C124.057 249.138 122.98 248.033 121.642 248.033C120.303 248.033 119.226 249.138 119.226 250.513C119.226 251.887 120.317 252.993 121.642 252.993Z" fill="black" fill-opacity="0.5"/>
<path d="M114.613 247.684C116.025 247.684 117.16 246.519 117.16 245.07C117.16 243.621 116.025 242.456 114.613 242.456C113.202 242.456 112.067 243.621 112.067 245.07C112.067 246.519 113.202 247.684 114.613 247.684Z" fill="black" fill-opacity="0.5"/>
<path d="M107.875 242.012C109.37 242.012 110.582 240.768 110.582 239.233C110.582 237.699 109.37 236.455 107.875 236.455C106.38 236.455 105.169 237.699 105.169 239.233C105.169 240.768 106.38 242.012 107.875 242.012Z" fill="black" fill-opacity="0.5"/>
<path d="M101.472 235.915C103.015 235.915 104.281 234.63 104.281 233.032C104.281 231.433 103.015 230.148 101.472 230.148C99.9152 230.148 98.6637 231.433 98.6637 233.032C98.6637 234.63 99.9297 235.915 101.472 235.915Z" fill="black" fill-opacity="0.5"/>
<path d="M95.4194 229.236C96.9182 229.236 98.1261 227.996 98.1261 226.458C98.1261 224.919 96.9182 223.679 95.4194 223.679C93.9205 223.679 92.7126 224.919 92.7126 226.458C92.7126 227.981 93.935 229.236 95.4194 229.236Z" fill="black" fill-opacity="0.5"/>
<path d="M89.744 221.911C91.0246 221.911 92.0578 220.851 92.0578 219.536C92.0578 218.221 91.0246 217.161 89.744 217.161C88.4634 217.161 87.4302 218.221 87.4302 219.536C87.4302 220.851 88.4634 221.911 89.744 221.911Z" fill="black" fill-opacity="0.5"/>
<path d="M84.447 214.696C85.7276 214.696 86.7608 213.635 86.7608 212.321C86.7608 211.006 85.7276 209.945 84.447 209.945C83.1664 209.945 82.1332 211.006 82.1332 212.321C82.1332 213.635 83.1664 214.696 84.447 214.696Z" fill="black" fill-opacity="0.5"/>
<path d="M79.5569 207.141C80.823 207.141 81.8416 206.096 81.8416 204.796C81.8416 203.496 80.823 202.45 79.5569 202.45C78.2909 202.45 77.2722 203.496 77.2722 204.796C77.2722 206.096 78.2909 207.141 79.5569 207.141Z" fill="black" fill-opacity="0.5"/>
<path d="M75.0755 198.71C75.9922 198.71 76.749 197.949 76.749 197.007C76.749 196.066 76.0068 195.304 75.0755 195.304C74.1587 195.304 73.4165 196.066 73.4165 197.007C73.4165 197.949 74.1587 198.71 75.0755 198.71Z" fill="black" fill-opacity="0.5"/>
<path d="M71.0298 190.812C72.0193 190.812 72.8343 189.99 72.8343 188.974C72.8343 187.958 72.0339 187.137 71.0298 187.137C70.0257 187.137 69.2399 187.958 69.2399 188.974C69.2399 189.99 70.0402 190.812 71.0298 190.812Z" fill="black" fill-opacity="0.5"/>
<path d="M67.4351 182.559C68.4246 182.559 69.225 181.738 69.225 180.722C69.225 179.706 68.4246 178.869 67.4351 178.869C66.4455 178.869 65.6451 179.691 65.6451 180.722C65.6451 181.738 66.4455 182.559 67.4351 182.559Z" fill="black" fill-opacity="0.5"/>
<path d="M64.2922 173.746C65.0926 173.746 65.7329 173.088 65.7329 172.267C65.7329 171.445 65.0926 170.788 64.2922 170.788C63.5064 170.788 62.8516 171.445 62.8516 172.267C62.8661 173.073 63.5064 173.746 64.2922 173.746Z" fill="black" fill-opacity="0.5"/>
<path d="M61.6144 165.264C62.473 165.264 63.186 164.547 63.186 163.651C63.186 162.769 62.4875 162.037 61.6144 162.037C60.7412 162.037 60.0427 162.754 60.0427 163.651C60.0573 164.547 60.7558 165.264 61.6144 165.264Z" fill="black" fill-opacity="0.5"/>
<path d="M59.4164 156.077C60.0421 156.077 60.566 155.554 60.566 154.897C60.566 154.24 60.0566 153.717 59.4164 153.717C58.7906 153.717 58.2667 154.24 58.2667 154.897C58.2667 155.554 58.7906 156.077 59.4164 156.077Z" fill="black" fill-opacity="0.5"/>
<path d="M57.699 147.1C58.2811 147.1 58.7468 146.622 58.7468 146.024C58.7468 145.427 58.2811 144.949 57.699 144.949C57.1169 144.949 56.6512 145.427 56.6512 146.024C56.6512 146.622 57.1169 147.1 57.699 147.1Z" fill="black" fill-opacity="0.5"/>
<path d="M56.4622 138.18C57.0589 138.18 57.5391 137.687 57.5391 137.074C57.5391 136.462 57.0589 135.969 56.4622 135.969C55.8656 135.969 55.3854 136.462 55.3854 137.074C55.3854 137.687 55.8656 138.18 56.4622 138.18Z" fill="black" fill-opacity="0.5"/>
<path d="M55.7356 129.138C56.3177 129.138 56.7834 128.66 56.7834 128.062C56.7834 127.464 56.3177 126.986 55.7356 126.986C55.1535 126.986 54.6879 127.464 54.6879 128.062C54.6879 128.645 55.1535 129.138 55.7356 129.138Z" fill="black" fill-opacity="0.5"/>
<path d="M55.4874 120.131C56.084 120.131 56.5642 119.638 56.5642 119.026C56.5642 118.413 56.084 117.92 55.4874 117.92C54.8907 117.92 54.4105 118.413 54.4105 119.026C54.4105 119.638 54.8907 120.131 55.4874 120.131Z" fill="black" fill-opacity="0.5"/>
<path d="M55.7349 110.826C56.186 110.826 56.5498 110.452 56.5498 109.989C56.5498 109.526 56.186 109.152 55.7349 109.152C55.2838 109.152 54.92 109.526 54.92 109.989C54.9054 110.452 55.2838 110.826 55.7349 110.826Z" fill="black" fill-opacity="0.5"/>
<path d="M56.4626 101.812C56.9137 101.812 57.2775 101.439 57.2775 100.976C57.2775 100.513 56.9137 100.139 56.4626 100.139C56.0115 100.139 55.6477 100.513 55.6477 100.976C55.6477 101.439 56.0115 101.812 56.4626 101.812Z" fill="black" fill-opacity="0.5"/>
<path d="M57.6998 92.8496C58.1509 92.8496 58.5147 92.4761 58.5147 92.0129C58.5147 91.5498 58.1509 91.1763 57.6998 91.1763C57.2487 91.1763 56.8849 91.5498 56.8849 92.0129C56.8849 92.4761 57.2487 92.8496 57.6998 92.8496Z" fill="black" fill-opacity="0.5"/>
<path d="M59.4163 83.7376C59.7378 83.7376 59.9984 83.4701 59.9984 83.1401C59.9984 82.81 59.7378 82.5425 59.4163 82.5425C59.0948 82.5425 58.8342 82.81 58.8342 83.1401C58.8342 83.4701 59.0948 83.7376 59.4163 83.7376Z" fill="black" fill-opacity="0.5"/>
<path d="M61.6141 75.1335C62.007 75.1335 62.3271 74.8048 62.3271 74.4015C62.3271 73.9981 62.007 73.6694 61.6141 73.6694C61.2212 73.6694 60.901 73.9981 60.901 74.4015C60.901 74.8048 61.2212 75.1335 61.6141 75.1335Z" fill="black" fill-opacity="0.5"/>
<path d="M64.2918 66.2117C64.5246 66.2117 64.7138 66.0175 64.7138 65.7785C64.7138 65.5394 64.5246 65.3452 64.2918 65.3452C64.0589 65.3452 63.8698 65.5394 63.8698 65.7785C63.8698 66.0175 64.0589 66.2117 64.2918 66.2117Z" fill="black" fill-opacity="0.5"/>
<path d="M67.4349 57.6486C67.6241 57.6486 67.7551 57.4992 67.7551 57.3199C67.7551 57.1406 67.6095 56.9912 67.4349 56.9912C67.2603 56.9912 67.1147 57.1406 67.1147 57.3199C67.1147 57.4992 67.2603 57.6486 67.4349 57.6486Z" fill="black" fill-opacity="0.5"/>
<path d="M71.0291 49.514C71.2619 49.514 71.4511 49.3197 71.4511 49.0807C71.4511 48.8417 71.2619 48.6475 71.0291 48.6475C70.7962 48.6475 70.6071 48.8417 70.6071 49.0807C70.6071 49.3048 70.7962 49.514 71.0291 49.514Z" fill="black" fill-opacity="0.5"/>
<path d="M75.0745 41.4749C75.3073 41.4749 75.4965 41.2807 75.4965 41.0416C75.4965 40.8026 75.3073 40.6084 75.0745 40.6084C74.8416 40.6084 74.6525 40.8026 74.6525 41.0416C74.6525 41.2807 74.8416 41.4749 75.0745 41.4749Z" fill="black" fill-opacity="0.5"/>
<path d="M79.5606 33.381C79.6351 33.381 79.6947 33.3196 79.6947 33.243C79.6947 33.1663 79.6351 33.105 79.5606 33.105C79.4861 33.105 79.4265 33.1663 79.4265 33.243C79.4265 33.3196 79.4861 33.381 79.5606 33.381Z" fill="black" fill-opacity="0.5"/>
<path d="M84.4479 25.7587C84.4634 25.7587 84.4788 25.7427 84.4788 25.7267C84.4788 25.7108 84.4634 25.6948 84.4479 25.6948C84.4324 25.6948 84.417 25.7108 84.417 25.7267C84.417 25.7427 84.4324 25.7587 84.4479 25.7587Z" fill="black" fill-opacity="0.5"/>
<path d="M142.117 277.176C143.645 277.176 144.896 275.906 144.896 274.322C144.896 272.754 143.659 271.469 142.117 271.469C140.589 271.469 139.337 272.739 139.337 274.322C139.337 275.891 140.589 277.176 142.117 277.176Z" fill="black" fill-opacity="0.5"/>
<path d="M134.229 273.08C135.728 273.08 136.936 271.84 136.936 270.301C136.936 268.762 135.728 267.522 134.229 267.522C132.731 267.522 131.523 268.762 131.523 270.301C131.523 271.825 132.731 273.08 134.229 273.08Z" fill="black" fill-opacity="0.5"/>
<path d="M126.561 269.062C128.293 269.062 129.69 267.628 129.69 265.85C129.69 264.073 128.293 262.624 126.561 262.624C124.829 262.624 123.432 264.058 123.432 265.85C123.432 267.613 124.829 269.062 126.561 269.062Z" fill="black" fill-opacity="0.5"/>
<path d="M119.139 264C120.769 264 122.079 262.655 122.079 260.982C122.079 259.309 120.769 257.964 119.139 257.964C117.509 257.964 116.2 259.309 116.2 260.982C116.2 262.655 117.509 264 119.139 264Z" fill="black" fill-opacity="0.5"/>
<path d="M111.964 258.738C113.594 258.738 114.904 257.394 114.904 255.72C114.904 254.047 113.594 252.703 111.964 252.703C110.335 252.703 109.025 254.047 109.025 255.72C109.025 257.379 110.349 258.738 111.964 258.738Z" fill="black" fill-opacity="0.5"/>
<path d="M105.081 252.793C106.537 252.793 107.73 251.582 107.73 250.074C107.73 248.58 106.551 247.354 105.081 247.354C103.612 247.354 102.433 248.565 102.433 250.074C102.433 251.582 103.626 252.793 105.081 252.793Z" fill="black" fill-opacity="0.5"/>
<path d="M98.4895 246.966C100.047 246.966 101.298 245.682 101.298 244.083C101.298 242.485 100.047 241.2 98.4895 241.2C96.9324 241.2 95.6809 242.485 95.6809 244.083C95.6809 245.667 96.947 246.966 98.4895 246.966Z" fill="black" fill-opacity="0.5"/>
<path d="M92.2321 240.6C93.7892 240.6 95.0406 239.315 95.0406 237.716C95.0406 236.118 93.7892 234.833 92.2321 234.833C90.6895 234.833 89.4235 236.118 89.4235 237.716C89.4235 239.315 90.675 240.6 92.2321 240.6Z" fill="black" fill-opacity="0.5"/>
<path d="M86.2952 233.627C87.6923 233.627 88.8128 232.476 88.8128 231.042C88.8128 229.608 87.6923 228.458 86.2952 228.458C84.8982 228.458 83.7777 229.608 83.7777 231.042C83.7777 232.461 84.8982 233.627 86.2952 233.627Z" fill="black" fill-opacity="0.5"/>
<path d="M80.706 226.907C82.234 226.907 83.4855 225.637 83.4855 224.054C83.4855 222.485 82.234 221.2 80.706 221.2C79.178 221.2 77.9265 222.47 77.9265 224.054C77.9265 225.622 79.178 226.907 80.706 226.907Z" fill="black" fill-opacity="0.5"/>
<path d="M75.4971 219.243C76.8359 219.243 77.9127 218.137 77.9127 216.763C77.9127 215.388 76.8359 214.283 75.4971 214.283C74.1583 214.283 73.0814 215.388 73.0814 216.763C73.0814 218.137 74.1583 219.243 75.4971 219.243Z" fill="black" fill-opacity="0.5"/>
<path d="M70.651 211.379C71.8297 211.379 72.7756 210.408 72.7756 209.198C72.7756 207.988 71.8297 207.017 70.651 207.017C69.4868 207.017 68.5264 207.988 68.5264 209.198C68.5409 210.393 69.4868 211.379 70.651 211.379Z" fill="black" fill-opacity="0.5"/>
<path d="M66.2268 203.569C67.391 203.569 68.3514 202.598 68.3514 201.388C68.3514 200.178 67.4055 199.207 66.2268 199.207C65.0481 199.207 64.1022 200.178 64.1022 201.388C64.1022 202.583 65.0481 203.569 66.2268 203.569Z" fill="black" fill-opacity="0.5"/>
<path d="M62.1963 194.89C63.0257 194.89 63.6951 194.203 63.6951 193.351C63.6951 192.5 63.0257 191.812 62.1963 191.812C61.3668 191.812 60.6974 192.5 60.6974 193.351C60.6828 194.203 61.3668 194.89 62.1963 194.89Z" fill="black" fill-opacity="0.5"/>
<path d="M58.5725 186.774C59.4747 186.774 60.2023 186.027 60.2023 185.1C60.2023 184.174 59.4747 183.427 58.5725 183.427C57.6702 183.427 56.9426 184.174 56.9426 185.1C56.9426 186.027 57.6702 186.774 58.5725 186.774Z" fill="black" fill-opacity="0.5"/>
<path d="M55.4001 177.928C56.084 177.928 56.637 177.36 56.637 176.658C56.637 175.956 56.084 175.388 55.4001 175.388C54.7161 175.388 54.1631 175.956 54.1631 176.658C54.1486 177.36 54.7161 177.928 55.4001 177.928Z" fill="black" fill-opacity="0.5"/>
<path d="M52.6501 169.102C53.2031 169.102 53.6688 168.639 53.6688 168.057C53.6688 167.489 53.2177 167.026 52.6501 167.026C52.0971 167.026 51.6315 167.489 51.6315 168.057C51.646 168.639 52.0971 169.102 52.6501 169.102Z" fill="black" fill-opacity="0.5"/>
<path d="M50.3504 160.185C50.8016 160.185 51.1654 159.811 51.1654 159.348C51.1654 158.885 50.8016 158.512 50.3504 158.512C49.8993 158.512 49.5355 158.885 49.5355 159.348C49.5355 159.797 49.8993 160.185 50.3504 160.185Z" fill="black" fill-opacity="0.5"/>
<path d="M48.5022 151.34C48.9533 151.34 49.3171 150.966 49.3171 150.503C49.3171 150.04 48.9533 149.667 48.5022 149.667C48.0511 149.667 47.6873 150.04 47.6873 150.503C47.6873 150.966 48.0511 151.34 48.5022 151.34Z" fill="black" fill-opacity="0.5"/>
<path d="M47.1203 142.734C47.7461 142.734 48.2699 142.212 48.2699 141.554C48.2699 140.897 47.7606 140.374 47.1203 140.374C46.4946 140.374 45.9707 140.897 45.9707 141.554C45.9707 142.212 46.4946 142.734 47.1203 142.734Z" fill="black" fill-opacity="0.5"/>
<path d="M46.1888 133.514C46.6981 133.514 47.1056 133.095 47.1056 132.573C47.1056 132.05 46.6981 131.631 46.1888 131.631C45.6794 131.631 45.272 132.05 45.272 132.573C45.272 133.08 45.6794 133.514 46.1888 133.514Z" fill="black" fill-opacity="0.5"/>
<path d="M45.7231 124.375C46.1742 124.375 46.5381 124.001 46.5381 123.538C46.5381 123.075 46.1742 122.702 45.7231 122.702C45.272 122.702 44.9082 123.075 44.9082 123.538C44.9082 124.001 45.272 124.375 45.7231 124.375Z" fill="black" fill-opacity="0.5"/>
<path d="M45.7231 115.368C46.1887 115.368 46.5671 114.98 46.5671 114.502C46.5671 114.024 46.1887 113.635 45.7231 113.635C45.2574 113.635 44.879 114.024 44.879 114.502C44.879 114.98 45.2574 115.368 45.7231 115.368Z" fill="black" fill-opacity="0.5"/>
<path d="M46.1886 106.208C46.5815 106.208 46.9017 105.879 46.9017 105.475C46.9017 105.072 46.5815 104.729 46.1886 104.729C45.7957 104.729 45.4756 105.057 45.4756 105.475C45.4756 105.879 45.7957 106.208 46.1886 106.208Z" fill="black" fill-opacity="0.5"/>
<path d="M47.1197 97.4534C47.6421 97.4534 48.0656 97.0186 48.0656 96.4823C48.0656 95.946 47.6421 95.5112 47.1197 95.5112C46.5973 95.5112 46.1738 95.946 46.1738 96.4823C46.1738 97.0186 46.5973 97.4534 47.1197 97.4534Z" fill="black" fill-opacity="0.5"/>
<path d="M48.5022 88.3057C48.9242 88.3057 49.2589 87.9621 49.2589 87.5288C49.2589 87.0956 48.9242 86.752 48.5022 86.752C48.0947 86.752 47.7455 87.0956 47.7455 87.5288C47.76 87.9621 48.0947 88.3057 48.5022 88.3057Z" fill="black" fill-opacity="0.5"/>
<path d="M50.3502 79.2122C50.6122 79.2122 50.8305 78.9881 50.8305 78.7042C50.8305 78.4204 50.6122 78.1963 50.3502 78.1963C50.0738 78.1963 49.8555 78.4204 49.8555 78.7042C49.87 78.9881 50.0883 79.2122 50.3502 79.2122Z" fill="black" fill-opacity="0.5"/>
<path d="M52.6507 70.4676C52.9271 70.4676 53.1454 70.2435 53.1454 69.9596C53.1454 69.6758 52.9271 69.4517 52.6507 69.4517C52.3742 69.4517 52.1559 69.6758 52.1559 69.9596C52.1704 70.2435 52.3887 70.4676 52.6507 70.4676Z" fill="black" fill-opacity="0.5"/>
<path d="M55.4004 61.8782C55.6769 61.8782 55.8952 61.6541 55.8952 61.3703C55.8952 61.0864 55.6769 60.8623 55.4004 60.8623C55.1239 60.8623 54.9056 61.0864 54.9056 61.3703C54.9056 61.6541 55.1239 61.8782 55.4004 61.8782Z" fill="black" fill-opacity="0.5"/>
<path d="M58.5732 53.1817C58.7041 53.1817 58.806 53.0771 58.806 52.9426C58.806 52.8082 58.7041 52.7036 58.5732 52.7036C58.4422 52.7036 58.3403 52.8082 58.3403 52.9426C58.3549 53.0771 58.4567 53.1817 58.5732 53.1817Z" fill="black" fill-opacity="0.5"/>
<path d="M147.982 291.042C149.699 291.042 151.081 289.623 151.081 287.86C151.081 286.097 149.699 284.678 147.982 284.678C146.264 284.678 144.882 286.112 144.882 287.86C144.867 289.623 146.264 291.042 147.982 291.042Z" fill="black" fill-opacity="0.5"/>
<path d="M139.861 287.599C141.607 287.599 143.033 286.135 143.033 284.342C143.033 282.55 141.622 281.085 139.861 281.085C138.115 281.085 136.688 282.535 136.688 284.342C136.688 286.15 138.115 287.599 139.861 287.599Z" fill="black" fill-opacity="0.5"/>
<path d="M131.931 283.512C133.59 283.512 134.929 282.138 134.929 280.42C134.929 278.717 133.59 277.342 131.931 277.342C130.272 277.342 128.933 278.717 128.933 280.42C128.919 282.123 130.257 283.512 131.931 283.512Z" fill="black" fill-opacity="0.5"/>
<path d="M124.188 279.358C125.935 279.358 127.361 277.894 127.361 276.102C127.361 274.309 125.949 272.845 124.188 272.845C122.442 272.845 121.016 274.294 121.016 276.102C121.016 277.894 122.442 279.358 124.188 279.358Z" fill="black" fill-opacity="0.5"/>
<path d="M116.665 274.665C118.426 274.665 119.867 273.186 119.867 271.378C119.867 269.57 118.441 268.091 116.665 268.091C114.904 268.091 113.464 269.57 113.464 271.378C113.464 273.201 114.904 274.665 116.665 274.665Z" fill="black" fill-opacity="0.5"/>
<path d="M109.389 269.38C111.048 269.38 112.401 268.005 112.401 266.287C112.401 264.584 111.048 263.209 109.389 263.209C107.73 263.209 106.391 264.584 106.391 266.287C106.391 267.99 107.73 269.38 109.389 269.38Z" fill="black" fill-opacity="0.5"/>
<path d="M102.375 263.803C103.976 263.803 105.285 262.474 105.285 260.816C105.285 259.172 103.99 257.828 102.375 257.828C100.774 257.828 99.4646 259.172 99.4646 260.816C99.4646 262.474 100.76 263.803 102.375 263.803Z" fill="black" fill-opacity="0.5"/>
<path d="M95.623 258.099C97.282 258.099 98.6353 256.725 98.6353 255.021C98.6353 253.318 97.282 251.944 95.623 251.944C93.964 251.944 92.6252 253.318 92.6252 255.021C92.6107 256.725 93.964 258.099 95.623 258.099Z" fill="black" fill-opacity="0.5"/>
<path d="M89.1615 251.719C90.6895 251.719 91.941 250.449 91.941 248.865C91.941 247.297 90.7041 246.012 89.1615 246.012C87.6336 246.012 86.3821 247.282 86.3821 248.865C86.3966 250.434 87.6336 251.719 89.1615 251.719Z" fill="black" fill-opacity="0.5"/>
<path d="M83.0057 245.235C84.5337 245.235 85.7851 243.965 85.7851 242.381C85.7851 240.813 84.5337 239.528 83.0057 239.528C81.4777 239.528 80.2262 240.798 80.2262 242.381C80.2407 243.965 81.4777 245.235 83.0057 245.235Z" fill="black" fill-opacity="0.5"/>
<path d="M77.1845 238.627C78.8144 238.627 80.1241 237.282 80.1241 235.609C80.1241 233.936 78.8144 232.591 77.1845 232.591C75.5547 232.591 74.245 233.936 74.245 235.609C74.245 237.267 75.5547 238.627 77.1845 238.627Z" fill="black" fill-opacity="0.5"/>
<path d="M71.6979 231.656C73.3714 231.656 74.7393 230.267 74.7393 228.534C74.7393 226.816 73.3714 225.412 71.6979 225.412C70.0244 225.412 68.6565 226.801 68.6565 228.534C68.6565 230.267 70.0099 231.656 71.6979 231.656Z" fill="black" fill-opacity="0.5"/>
<path d="M66.5474 224.321C68.2209 224.321 69.5888 222.917 69.5888 221.199C69.5888 219.481 68.2355 218.077 66.5474 218.077C64.8739 218.077 63.506 219.481 63.506 221.199C63.506 222.917 64.8739 224.321 66.5474 224.321Z" fill="black" fill-opacity="0.5"/>
<path d="M61.7744 216.209C63.186 216.209 64.3211 215.044 64.3211 213.595C64.3211 212.146 63.1714 210.98 61.7744 210.98C60.3774 210.98 59.2278 212.146 59.2278 213.595C59.2278 215.044 60.3629 216.209 61.7744 216.209Z" fill="black" fill-opacity="0.5"/>
<path d="M57.3649 208.274C58.7183 208.274 59.8097 207.154 59.8097 205.764C59.8097 204.375 58.7183 203.254 57.3649 203.254C56.0116 203.254 54.9202 204.375 54.9202 205.764C54.9202 207.154 56.0116 208.274 57.3649 208.274Z" fill="black" fill-opacity="0.5"/>
<path d="M53.3487 199.264C54.1782 199.264 54.8476 198.577 54.8476 197.725C54.8476 196.874 54.1782 196.187 53.3487 196.187C52.5193 196.187 51.8499 196.874 51.8499 197.725C51.8499 198.562 52.5193 199.264 53.3487 199.264Z" fill="black" fill-opacity="0.5"/>
<path d="M49.7244 190.777C50.4229 190.777 51.005 190.194 51.005 189.462C51.005 188.745 50.4375 188.147 49.7244 188.147C49.0259 188.147 48.4438 188.73 48.4438 189.462C48.4438 190.194 49.0259 190.777 49.7244 190.777Z" fill="black" fill-opacity="0.5"/>
<path d="M46.5093 182.372C47.2166 182.372 47.7899 181.784 47.7899 181.057C47.7899 180.331 47.2166 179.743 46.5093 179.743C45.8021 179.743 45.2288 180.331 45.2288 181.057C45.2288 181.784 45.8021 182.372 46.5093 182.372Z" fill="black" fill-opacity="0.5"/>
<path d="M43.7004 173.792C44.3989 173.792 44.981 173.209 44.981 172.477C44.981 171.76 44.4135 171.162 43.7004 171.162C43.0019 171.162 42.4198 171.745 42.4198 172.477C42.4198 173.209 43.0019 173.792 43.7004 173.792Z" fill="black" fill-opacity="0.5"/>
<path d="M41.3142 164.948C41.9399 164.948 42.4638 164.425 42.4638 163.768C42.4638 163.125 41.9545 162.587 41.3142 162.587C40.6739 162.587 40.1646 163.11 40.1646 163.768C40.1791 164.425 40.6884 164.948 41.3142 164.948Z" fill="black" fill-opacity="0.5"/>
<path d="M39.3493 156.003C39.9023 156.003 40.368 155.54 40.368 154.957C40.368 154.39 39.9169 153.912 39.3493 153.912C38.7964 153.912 38.3307 154.375 38.3307 154.957C38.3452 155.54 38.7964 156.003 39.3493 156.003Z" fill="black" fill-opacity="0.5"/>
<path d="M37.8217 146.826C38.2396 146.826 38.5784 146.478 38.5784 146.049C38.5784 145.62 38.2396 145.272 37.8217 145.272C37.4037 145.272 37.0649 145.62 37.0649 146.049C37.0649 146.478 37.4037 146.826 37.8217 146.826Z" fill="black" fill-opacity="0.5"/>
<path d="M36.7291 137.922C37.1802 137.922 37.544 137.548 37.544 137.085C37.544 136.622 37.1802 136.249 36.7291 136.249C36.278 136.249 35.9142 136.622 35.9142 137.085C35.9142 137.548 36.278 137.922 36.7291 137.922Z" fill="black" fill-opacity="0.5"/>
<path d="M36.0748 128.839C36.4927 128.839 36.8315 128.491 36.8315 128.062C36.8315 127.633 36.4927 127.285 36.0748 127.285C35.6569 127.285 35.3181 127.633 35.3181 128.062C35.3181 128.491 35.6569 128.839 36.0748 128.839Z" fill="black" fill-opacity="0.5"/>
<path d="M35.8565 119.759C36.2494 119.759 36.5695 119.43 36.5695 119.026C36.5695 118.623 36.2494 118.294 35.8565 118.294C35.4636 118.294 35.1434 118.623 35.1434 119.026C35.1288 119.43 35.4636 119.759 35.8565 119.759Z" fill="black" fill-opacity="0.5"/>
<path d="M36.0752 110.685C36.4536 110.685 36.7591 110.371 36.7591 109.983C36.7591 109.594 36.4536 109.281 36.0752 109.281C35.6968 109.281 35.3912 109.594 35.3912 109.983C35.3912 110.371 35.6968 110.685 36.0752 110.685Z" fill="black" fill-opacity="0.5"/>
<path d="M36.7295 101.663C37.1078 101.663 37.4134 101.349 37.4134 100.961C37.4134 100.573 37.1078 100.259 36.7295 100.259C36.3511 100.259 36.0455 100.573 36.0455 100.961C36.0455 101.349 36.3511 101.663 36.7295 101.663Z" fill="black" fill-opacity="0.5"/>
<path d="M37.8211 92.5814C38.1426 92.5814 38.4032 92.3138 38.4032 91.9838C38.4032 91.6538 38.1426 91.3862 37.8211 91.3862C37.4996 91.3862 37.239 91.6538 37.239 91.9838C37.239 92.3138 37.4996 92.5814 37.8211 92.5814Z" fill="black" fill-opacity="0.5"/>
<path d="M39.3494 83.3774C39.5095 83.3774 39.6404 83.2429 39.6404 83.0786C39.6404 82.9142 39.5095 82.7798 39.3494 82.7798C39.1893 82.7798 39.0583 82.9142 39.0583 83.0786C39.0583 83.2429 39.1893 83.3774 39.3494 83.3774Z" fill="black" fill-opacity="0.5"/>
<path d="M43.7019 65.6019C43.7174 65.6019 43.7328 65.586 43.7328 65.57C43.7328 65.5541 43.7174 65.5381 43.7019 65.5381C43.6865 65.5381 43.671 65.5541 43.671 65.57C43.671 65.586 43.6865 65.6019 43.7019 65.6019Z" fill="black" fill-opacity="0.5"/>
<path d="M145.755 301.037C147.501 301.037 148.928 299.588 148.928 297.78C148.928 295.987 147.516 294.523 145.755 294.523C144.009 294.523 142.583 295.972 142.583 297.78C142.597 299.588 144.009 301.037 145.755 301.037Z" fill="black" fill-opacity="0.5"/>
<path d="M137.606 297.675C139.396 297.675 140.837 296.196 140.837 294.359C140.837 292.521 139.381 291.042 137.606 291.042C135.816 291.042 134.375 292.521 134.375 294.359C134.375 296.181 135.831 297.675 137.606 297.675Z" fill="black" fill-opacity="0.5"/>
<path d="M129.631 293.773C131.377 293.773 132.803 292.324 132.803 290.516C132.803 288.708 131.392 287.259 129.631 287.259C127.87 287.259 126.459 288.708 126.459 290.516C126.459 292.324 127.885 293.773 129.631 293.773Z" fill="black" fill-opacity="0.5"/>
<path d="M121.831 289.561C123.577 289.561 125.003 288.112 125.003 286.304C125.003 284.511 123.592 283.047 121.831 283.047C120.085 283.047 118.659 284.511 118.659 286.304C118.659 288.112 120.085 289.561 121.831 289.561Z" fill="black" fill-opacity="0.5"/>
<path d="M114.234 284.886C115.923 284.886 117.305 283.482 117.305 281.734C117.305 279.986 115.923 278.582 114.234 278.582C112.532 278.582 111.164 280.001 111.164 281.734C111.164 283.467 112.546 284.886 114.234 284.886Z" fill="black" fill-opacity="0.5"/>
<path d="M106.871 280.029C108.618 280.029 110.044 278.58 110.044 276.772C110.044 274.979 108.632 273.515 106.871 273.515C105.125 273.515 103.699 274.964 103.699 276.772C103.699 278.58 105.111 280.029 106.871 280.029Z" fill="black" fill-opacity="0.5"/>
<path d="M99.7261 274.698C101.458 274.698 102.855 273.264 102.855 271.471C102.855 269.693 101.458 268.259 99.7261 268.259C97.9944 268.259 96.5974 269.693 96.5974 271.471C96.5974 273.264 97.9944 274.698 99.7261 274.698Z" fill="black" fill-opacity="0.5"/>
<path d="M92.8429 269.032C94.5601 269.032 95.9425 267.613 95.9425 265.85C95.9425 264.087 94.5455 262.667 92.8429 262.667C91.1257 262.667 89.7433 264.102 89.7433 265.85C89.7433 267.598 91.1257 269.032 92.8429 269.032Z" fill="black" fill-opacity="0.5"/>
<path d="M86.2218 263.03C87.9098 263.03 89.2923 261.61 89.2923 259.877C89.2923 258.144 87.9098 256.725 86.2218 256.725C84.5192 256.725 83.1512 258.129 83.1512 259.877C83.1512 261.625 84.5192 263.03 86.2218 263.03Z" fill="black" fill-opacity="0.5"/>
<path d="M79.8773 256.816C81.6052 256.816 83.006 255.378 83.006 253.604C83.006 251.83 81.6052 250.392 79.8773 250.392C78.1493 250.392 76.7485 251.83 76.7485 253.604C76.7485 255.378 78.1493 256.816 79.8773 256.816Z" fill="black" fill-opacity="0.5"/>
<path d="M73.8377 250.135C75.5174 250.135 76.8791 248.737 76.8791 247.013C76.8791 245.289 75.5174 243.891 73.8377 243.891C72.1579 243.891 70.7963 245.289 70.7963 247.013C70.7963 248.737 72.1579 250.135 73.8377 250.135Z" fill="black" fill-opacity="0.5"/>
<path d="M68.1042 243.37C69.8321 243.37 71.2329 241.932 71.2329 240.158C71.2329 238.384 69.8321 236.946 68.1042 236.946C66.3762 236.946 64.9755 238.384 64.9755 240.158C64.9755 241.932 66.3762 243.37 68.1042 243.37Z" fill="black" fill-opacity="0.5"/>
<path d="M62.6912 236.363C64.4957 236.363 65.9509 234.869 65.9509 233.001C65.9509 231.149 64.4957 229.655 62.6912 229.655C60.8867 229.655 59.4315 231.149 59.4315 233.001C59.4315 234.869 60.8867 236.363 62.6912 236.363Z" fill="black" fill-opacity="0.5"/>
<path d="M57.6125 228.743C59.286 228.743 60.6539 227.338 60.6539 225.62C60.6539 223.902 59.286 222.498 57.6125 222.498C55.939 222.498 54.571 223.887 54.571 225.62C54.5856 227.338 55.939 228.743 57.6125 228.743Z" fill="black" fill-opacity="0.5"/>
<path d="M52.8823 220.298C54.1338 220.298 55.1379 219.253 55.1379 217.983C55.1379 216.713 54.1338 215.667 52.8823 215.667C51.6308 215.667 50.6267 216.698 50.6267 217.983C50.6267 219.267 51.6454 220.298 52.8823 220.298Z" fill="black" fill-opacity="0.5"/>
<path d="M48.5172 211.98C49.5068 211.98 50.3072 211.158 50.3072 210.142C50.3072 209.126 49.5068 208.29 48.5172 208.29C47.5277 208.29 46.7128 209.111 46.7128 210.142C46.7128 211.158 47.5277 211.98 48.5172 211.98Z" fill="black" fill-opacity="0.5"/>
<path d="M44.5006 203.924C45.4902 203.924 46.2905 203.103 46.2905 202.072C46.2905 201.056 45.4902 200.234 44.5006 200.234C43.5111 200.234 42.7107 201.056 42.7107 202.072C42.7107 203.103 43.5111 203.924 44.5006 203.924Z" fill="black" fill-opacity="0.5"/>
<path d="M40.8776 195.157C41.5849 195.157 42.1582 194.568 42.1582 193.842C42.1582 193.116 41.5849 192.527 40.8776 192.527C40.1704 192.527 39.597 193.116 39.597 193.842C39.597 194.568 40.1704 195.157 40.8776 195.157Z" fill="black" fill-opacity="0.5"/>
<path d="M37.6171 186.715C38.301 186.715 38.854 186.147 38.854 185.445C38.854 184.743 38.301 184.175 37.6171 184.175C36.9331 184.175 36.3801 184.743 36.3801 185.445C36.3801 186.147 36.9331 186.715 37.6171 186.715Z" fill="black" fill-opacity="0.5"/>
<path d="M34.7655 178.064C35.3912 178.064 35.9151 177.541 35.9151 176.884C35.9151 176.241 35.4058 175.704 34.7655 175.704C34.1252 175.704 33.6158 176.227 33.6158 176.884C33.6158 177.541 34.1252 178.064 34.7655 178.064Z" fill="black" fill-opacity="0.5"/>
<path d="M32.2915 169.473C32.9755 169.473 33.5284 168.906 33.5284 168.203C33.5284 167.501 32.9755 166.934 32.2915 166.934C31.6075 166.934 31.0546 167.501 31.0546 168.203C31.0546 168.906 31.6075 169.473 32.2915 169.473Z" fill="black" fill-opacity="0.5"/>
<path d="M30.2395 160.585C30.8798 160.585 31.3891 160.062 31.3891 159.405C31.3891 158.762 30.8798 158.225 30.2395 158.225C29.6137 158.225 29.0898 158.747 29.0898 159.405C29.0898 160.062 29.5992 160.585 30.2395 160.585Z" fill="black" fill-opacity="0.5"/>
<path d="M28.5808 151.714C29.2211 151.714 29.7304 151.191 29.7304 150.534C29.7304 149.891 29.2211 149.354 28.5808 149.354C27.955 149.354 27.4312 149.876 27.4312 150.534C27.4312 151.176 27.955 151.714 28.5808 151.714Z" fill="black" fill-opacity="0.5"/>
<path d="M27.3441 142.659C27.9262 142.659 28.3919 142.181 28.3919 141.583C28.3919 140.986 27.9262 140.508 27.3441 140.508C26.7621 140.508 26.2964 140.986 26.2964 141.583C26.2964 142.166 26.7621 142.659 27.3441 142.659Z" fill="black" fill-opacity="0.5"/>
<path d="M26.4998 133.654C27.0819 133.654 27.5475 133.176 27.5475 132.579C27.5475 131.981 27.0819 131.503 26.4998 131.503C25.9177 131.503 25.452 131.981 25.452 132.579C25.4666 133.176 25.9322 133.654 26.4998 133.654Z" fill="black" fill-opacity="0.5"/>
<path d="M26.0923 124.251C26.4706 124.251 26.7762 123.937 26.7762 123.549C26.7762 123.16 26.4706 122.847 26.0923 122.847C25.7139 122.847 25.4083 123.16 25.4083 123.549C25.4083 123.922 25.7139 124.251 26.0923 124.251Z" fill="black" fill-opacity="0.5"/>
<path d="M26.0918 115.093C26.4119 115.093 26.6739 114.824 26.6739 114.496C26.6739 114.167 26.4119 113.898 26.0918 113.898C25.7716 113.898 25.5097 114.167 25.5097 114.496C25.4952 114.824 25.7716 115.093 26.0918 115.093Z" fill="black" fill-opacity="0.5"/>
<path d="M26.499 105.77C26.6591 105.77 26.7901 105.635 26.7901 105.471C26.7901 105.307 26.6591 105.172 26.499 105.172C26.339 105.172 26.208 105.307 26.208 105.471C26.208 105.635 26.339 105.77 26.499 105.77Z" fill="black" fill-opacity="0.5"/>
<path d="M27.3464 96.5604C27.406 96.5604 27.4507 96.5144 27.4507 96.453C27.4507 96.3917 27.406 96.3457 27.3464 96.3457C27.2868 96.3457 27.2421 96.3917 27.2421 96.453C27.2421 96.5144 27.2868 96.5604 27.3464 96.5604Z" fill="black" fill-opacity="0.5"/>
<path d="M143.543 310.713C145.173 310.713 146.483 309.353 146.483 307.695C146.483 306.022 145.173 304.677 143.543 304.677C141.913 304.677 140.604 306.022 140.604 307.695C140.604 309.368 141.928 310.713 143.543 310.713Z" fill="black" fill-opacity="0.5"/>
<path d="M135.379 307.818C137.252 307.818 138.77 306.26 138.77 304.337C138.77 302.415 137.252 300.856 135.379 300.856C133.507 300.856 131.989 302.415 131.989 304.337C131.989 306.26 133.507 307.818 135.379 307.818Z" fill="black" fill-opacity="0.5"/>
<path d="M127.346 303.9C129.136 303.9 130.577 302.421 130.577 300.583C130.577 298.746 129.136 297.267 127.346 297.267C125.556 297.267 124.116 298.761 124.116 300.583C124.116 302.421 125.571 303.9 127.346 303.9Z" fill="black" fill-opacity="0.5"/>
<path d="M119.502 299.408C121.074 299.408 122.34 298.109 122.34 296.495C122.34 294.882 121.074 293.582 119.502 293.582C117.931 293.582 116.665 294.882 116.665 296.495C116.665 298.094 117.931 299.408 119.502 299.408Z" fill="black" fill-opacity="0.5"/>
<path d="M111.833 294.943C113.405 294.943 114.686 293.628 114.686 292.029C114.686 290.416 113.405 289.116 111.833 289.116C110.262 289.116 108.996 290.416 108.996 292.029C108.996 293.643 110.276 294.943 111.833 294.943Z" fill="black" fill-opacity="0.5"/>
<path d="M104.383 290.371C106.071 290.371 107.453 288.952 107.453 287.219C107.453 285.471 106.071 284.066 104.383 284.066C102.695 284.066 101.312 285.471 101.312 287.219C101.312 288.952 102.68 290.371 104.383 290.371Z" fill="black" fill-opacity="0.5"/>
<path d="M97.1362 285.316C98.8825 285.316 100.309 283.867 100.309 282.059C100.309 280.266 98.8971 278.802 97.1362 278.802C95.39 278.802 93.9639 280.251 93.9639 282.059C93.9639 283.852 95.39 285.316 97.1362 285.316Z" fill="black" fill-opacity="0.5"/>
<path d="M90.136 279.894C91.9259 279.894 93.3665 278.415 93.3665 276.578C93.3665 274.74 91.9259 273.261 90.136 273.261C88.346 273.261 86.9054 274.74 86.9054 276.578C86.8908 278.415 88.346 279.894 90.136 279.894Z" fill="black" fill-opacity="0.5"/>
<path d="M83.37 274.113C85.1599 274.113 86.6006 272.619 86.6006 270.797C86.6006 268.959 85.1454 267.48 83.37 267.48C81.5801 267.48 80.1394 268.974 80.1394 270.797C80.1394 272.619 81.5801 274.113 83.37 274.113Z" fill="black" fill-opacity="0.5"/>
<path d="M76.8646 268.109C78.7127 268.109 80.197 266.57 80.197 264.688C80.197 262.805 78.7127 261.267 76.8646 261.267C75.031 261.267 73.5321 262.805 73.5321 264.688C73.5321 266.57 75.031 268.109 76.8646 268.109Z" fill="black" fill-opacity="0.5"/>
<path d="M70.6368 261.576C72.4049 261.576 73.8383 260.104 73.8383 258.289C73.8383 256.474 72.4049 255.002 70.6368 255.002C68.8687 255.002 67.4353 256.474 67.4353 258.289C67.4353 260.104 68.8687 261.576 70.6368 261.576Z" fill="black" fill-opacity="0.5"/>
<path d="M64.699 254.902C66.4599 254.902 67.9005 253.438 67.9005 251.615C67.9005 249.793 66.4744 248.329 64.699 248.329C62.9382 248.329 61.4976 249.793 61.4976 251.615C61.4976 253.423 62.9237 254.902 64.699 254.902Z" fill="black" fill-opacity="0.5"/>
<path d="M59.0524 247.925C60.7987 247.925 62.2248 246.461 62.2248 244.668C62.2248 242.876 60.8132 241.412 59.0524 241.412C57.3061 241.412 55.88 242.861 55.88 244.668C55.88 246.461 57.3061 247.925 59.0524 247.925Z" fill="black" fill-opacity="0.5"/>
<path d="M53.7119 240.828C55.5164 240.828 56.9862 239.335 56.9862 237.467C56.9862 235.615 55.5164 234.121 53.7119 234.121C51.9075 234.121 50.4523 235.615 50.4523 237.467C50.4377 239.335 51.9075 240.828 53.7119 240.828Z" fill="black" fill-opacity="0.5"/>
<path d="M48.692 232.418C49.9726 232.418 51.0058 231.358 51.0058 230.043C51.0058 228.728 49.9726 227.667 48.692 227.667C47.4114 227.667 46.3782 228.728 46.3782 230.043C46.3782 231.358 47.4114 232.418 48.692 232.418Z" fill="black" fill-opacity="0.5"/>
<path d="M44.0057 224.77C45.2863 224.77 46.3195 223.71 46.3195 222.395C46.3195 221.08 45.2863 220.02 44.0057 220.02C42.7251 220.02 41.6919 221.08 41.6919 222.395C41.6919 223.71 42.7251 224.77 44.0057 224.77Z" fill="black" fill-opacity="0.5"/>
<path d="M39.6551 216.624C40.7902 216.624 41.707 215.683 41.707 214.503C41.707 213.338 40.7902 212.396 39.6551 212.396C38.5201 212.396 37.6033 213.338 37.6033 214.503C37.6033 215.683 38.5201 216.624 39.6551 216.624Z" fill="black" fill-opacity="0.5"/>
<path d="M35.6677 208.406C36.7155 208.406 37.5595 207.539 37.5595 206.464C37.5595 205.388 36.7155 204.521 35.6677 204.521C34.62 204.521 33.7759 205.388 33.7759 206.464C33.7614 207.524 34.62 208.406 35.6677 208.406Z" fill="black" fill-opacity="0.5"/>
<path d="M32.0141 199.835C32.8873 199.835 33.5858 199.118 33.5858 198.222C33.5858 197.325 32.8873 196.608 32.0141 196.608C31.141 196.608 30.4425 197.325 30.4425 198.222C30.4425 199.118 31.1556 199.835 32.0141 199.835Z" fill="black" fill-opacity="0.5"/>
<path d="M28.7406 191.51C29.6428 191.51 30.3704 190.764 30.3704 189.837C30.3704 188.911 29.6428 188.164 28.7406 188.164C27.8383 188.164 27.1107 188.911 27.1107 189.837C27.1107 190.764 27.8383 191.51 28.7406 191.51Z" fill="black" fill-opacity="0.5"/>
<path d="M25.8302 182.964C26.7324 182.964 27.46 182.217 27.46 181.29C27.46 180.364 26.7324 179.617 25.8302 179.617C24.9279 179.617 24.2003 180.364 24.2003 181.29C24.2003 182.217 24.9279 182.964 25.8302 182.964Z" fill="black" fill-opacity="0.5"/>
<path d="M23.2981 173.081C23.531 173.081 23.7201 172.887 23.7201 172.648C23.7201 172.409 23.531 172.214 23.2981 172.214C23.0653 172.214 22.8761 172.409 22.8761 172.648C22.8615 172.887 23.0653 173.081 23.2981 173.081Z" fill="black" fill-opacity="0.5"/>
<path d="M21.1446 164.452C21.4661 164.452 21.7267 164.185 21.7267 163.855C21.7267 163.525 21.4661 163.257 21.1446 163.257C20.8231 163.257 20.5625 163.525 20.5625 163.855C20.5625 164.185 20.8231 164.452 21.1446 164.452Z" fill="black" fill-opacity="0.5"/>
<path d="M19.3685 155.4C19.5868 155.4 19.7614 155.22 19.7614 154.996C19.7614 154.772 19.5868 154.593 19.3685 154.593C19.1502 154.593 18.9756 154.772 18.9756 154.996C18.9756 155.22 19.1648 155.4 19.3685 155.4Z" fill="black" fill-opacity="0.5"/>
<path d="M18.0009 146.378C18.161 146.378 18.2919 146.244 18.2919 146.08C18.2919 145.915 18.161 145.781 18.0009 145.781C17.8408 145.781 17.7098 145.915 17.7098 146.08C17.7098 146.244 17.8408 146.378 18.0009 146.378Z" fill="black" fill-opacity="0.5"/>
<path d="M17.011 137.282C17.1129 137.282 17.2002 137.192 17.2002 137.087C17.2002 136.983 17.1129 136.893 17.011 136.893C16.9091 136.893 16.8218 136.983 16.8218 137.087C16.8073 137.192 16.9091 137.282 17.011 137.282Z" fill="black" fill-opacity="0.5"/>
<path d="M16.4176 128.17C16.4772 128.17 16.5219 128.124 16.5219 128.062C16.5219 128.001 16.4772 127.955 16.4176 127.955C16.358 127.955 16.3134 128.001 16.3134 128.062C16.3134 128.124 16.358 128.17 16.4176 128.17Z" fill="black" fill-opacity="0.5"/>
<path d="M141.346 320.786C143.063 320.786 144.445 319.352 144.445 317.604C144.445 315.856 143.063 314.422 141.346 314.422C139.629 314.422 138.246 315.841 138.246 317.604C138.246 319.367 139.629 320.786 141.346 320.786Z" fill="black" fill-opacity="0.5"/>
<path d="M133.138 317.749C135.001 317.749 136.5 316.196 136.5 314.298C136.5 312.386 134.986 310.847 133.138 310.847C131.275 310.847 129.776 312.401 129.776 314.298C129.776 316.21 131.275 317.749 133.138 317.749Z" fill="black" fill-opacity="0.5"/>
<path d="M125.076 313.896C126.822 313.896 128.248 312.447 128.248 310.64C128.248 308.847 126.837 307.383 125.076 307.383C123.33 307.383 121.904 308.832 121.904 310.64C121.918 312.432 123.33 313.896 125.076 313.896Z" fill="black" fill-opacity="0.5"/>
<path d="M117.189 309.986C118.993 309.986 120.448 308.492 120.448 306.639C120.448 304.787 118.993 303.293 117.189 303.293C115.384 303.293 113.929 304.787 113.929 306.639C113.915 308.477 115.384 309.986 117.189 309.986Z" fill="black" fill-opacity="0.5"/>
<path d="M109.462 305.668C111.281 305.668 112.766 304.159 112.766 302.277C112.766 300.41 111.296 298.886 109.462 298.886C107.643 298.886 106.159 300.395 106.159 302.277C106.173 304.144 107.643 305.668 109.462 305.668Z" fill="black" fill-opacity="0.5"/>
<path d="M101.924 301.08C103.801 301.08 105.329 299.526 105.329 297.599C105.329 295.671 103.801 294.118 101.924 294.118C100.047 294.118 98.5334 295.686 98.5334 297.599C98.5334 299.511 100.061 301.08 101.924 301.08Z" fill="black" fill-opacity="0.5"/>
<path d="M94.604 296.061C96.4813 296.061 97.9947 294.507 97.9947 292.58C97.9947 290.653 96.4813 289.099 94.604 289.099C92.7268 289.099 91.2134 290.653 91.2134 292.58C91.1988 294.507 92.7268 296.061 94.604 296.061Z" fill="black" fill-opacity="0.5"/>
<path d="M87.4875 290.753C89.3793 290.753 90.9219 289.184 90.9219 287.227C90.9219 285.285 89.3939 283.701 87.4875 283.701C85.5958 283.701 84.0532 285.27 84.0532 287.227C84.0532 289.184 85.5958 290.753 87.4875 290.753Z" fill="black" fill-opacity="0.5"/>
<path d="M80.5899 284.617C82.2198 284.617 83.5295 283.273 83.5295 281.599C83.5295 279.926 82.2052 278.582 80.5899 278.582C78.9601 278.582 77.6504 279.926 77.6504 281.599C77.6649 283.273 78.9746 284.617 80.5899 284.617Z" fill="black" fill-opacity="0.5"/>
<path d="M73.9541 278.926C75.7004 278.926 77.1265 277.477 77.1265 275.669C77.1265 273.876 75.7149 272.412 73.9541 272.412C72.2079 272.412 70.7817 273.861 70.7817 275.669C70.7817 277.462 72.2079 278.926 73.9541 278.926Z" fill="black" fill-opacity="0.5"/>
<path d="M67.5513 272.871C69.3849 272.871 70.8838 271.332 70.8838 269.45C70.8838 267.568 69.3849 266.029 67.5513 266.029C65.7177 266.029 64.2189 267.568 64.2189 269.45C64.2189 271.332 65.7177 272.871 67.5513 272.871Z" fill="black" fill-opacity="0.5"/>
<path d="M61.4253 265.569C62.8369 265.569 63.972 264.403 63.972 262.954C63.972 261.505 62.8369 260.34 61.4253 260.34C60.0137 260.34 58.8787 261.505 58.8787 262.954C58.8787 264.388 60.0283 265.569 61.4253 265.569Z" fill="black" fill-opacity="0.5"/>
<path d="M55.5751 259.443C57.3213 259.443 58.7474 257.994 58.7474 256.187C58.7474 254.394 57.3359 252.93 55.5751 252.93C53.8288 252.93 52.4027 254.379 52.4027 256.187C52.4027 257.979 53.8288 259.443 55.5751 259.443Z" fill="black" fill-opacity="0.5"/>
<path d="M50.0162 251.828C51.4423 251.828 52.5919 250.648 52.5919 249.184C52.5919 247.72 51.4423 246.54 50.0162 246.54C48.5901 246.54 47.4404 247.72 47.4404 249.184C47.4259 250.648 48.5901 251.828 50.0162 251.828Z" fill="black" fill-opacity="0.5"/>
<path d="M44.7489 244.579C46.175 244.579 47.3246 243.399 47.3246 241.935C47.3246 240.471 46.175 239.291 44.7489 239.291C43.3227 239.291 42.1731 240.486 42.1731 241.935C42.1586 243.399 43.3227 244.579 44.7489 244.579Z" fill="black" fill-opacity="0.5"/>
<path d="M39.786 235.765C40.4845 235.765 41.0666 235.182 41.0666 234.45C41.0666 233.733 40.499 233.136 39.786 233.136C39.0875 233.136 38.5054 233.718 38.5054 234.45C38.5054 235.182 39.0729 235.765 39.786 235.765Z" fill="black" fill-opacity="0.5"/>
<path d="M35.1284 228.784C36.2052 228.784 37.0929 227.887 37.0929 226.767C37.0929 225.661 36.2198 224.75 35.1284 224.75C34.0515 224.75 33.1638 225.646 33.1638 226.767C33.1638 227.887 34.0515 228.784 35.1284 228.784Z" fill="black" fill-opacity="0.5"/>
<path d="M30.8069 219.493C31.1271 219.493 31.389 219.224 31.389 218.895C31.389 218.566 31.1271 218.297 30.8069 218.297C30.4868 218.297 30.2249 218.566 30.2249 218.895C30.2249 219.224 30.4868 219.493 30.8069 219.493Z" fill="black" fill-opacity="0.5"/>
<path d="M26.8198 212.111C27.5038 212.111 28.0568 211.543 28.0568 210.841C28.0568 210.139 27.5038 209.571 26.8198 209.571C26.1359 209.571 25.5829 210.139 25.5829 210.841C25.5829 211.543 26.1359 212.111 26.8198 212.111Z" fill="black" fill-opacity="0.5"/>
<path d="M23.1686 202.648C23.1841 202.648 23.1995 202.632 23.1995 202.616C23.1995 202.6 23.1841 202.584 23.1686 202.584C23.1531 202.584 23.1377 202.6 23.1377 202.616C23.1377 202.632 23.1531 202.648 23.1686 202.648Z" fill="black" fill-opacity="0.5"/>
<path d="M19.8665 194.328C19.9261 194.328 19.9708 194.282 19.9708 194.221C19.9708 194.159 19.9261 194.113 19.8665 194.113C19.8069 194.113 19.7622 194.159 19.7622 194.221C19.7622 194.282 19.8069 194.328 19.8665 194.328Z" fill="black" fill-opacity="0.5"/>
<path d="M16.9096 185.893C17.0115 185.893 17.0988 185.803 17.0988 185.684C17.0988 185.579 17.0115 185.49 16.9096 185.49C16.8078 185.49 16.7205 185.579 16.7205 185.684C16.7059 185.803 16.7932 185.893 16.9096 185.893Z" fill="black" fill-opacity="0.5"/>
<path d="M14.3043 177.494C14.5372 177.494 14.7264 177.3 14.7264 177.061C14.7264 176.822 14.5372 176.628 14.3043 176.628C14.0715 176.628 13.8823 176.822 13.8823 177.061C13.8823 177.285 14.0715 177.494 14.3043 177.494Z" fill="black" fill-opacity="0.5"/>
<path d="M147.472 333.887C149.345 333.887 150.863 332.328 150.863 330.406C150.863 328.483 149.345 326.925 147.472 326.925C145.6 326.925 144.082 328.483 144.082 330.406C144.082 332.328 145.6 333.887 147.472 333.887Z" fill="black" fill-opacity="0.5"/>
<path d="M139.134 330.151C140.56 330.151 141.71 328.971 141.71 327.507C141.71 326.043 140.56 324.862 139.134 324.862C137.708 324.862 136.558 326.043 136.558 327.507C136.558 328.971 137.708 330.151 139.134 330.151Z" fill="black" fill-opacity="0.5"/>
<path d="M130.912 325.534C131.596 325.534 132.149 324.967 132.149 324.265C132.149 323.562 131.596 322.995 130.912 322.995C130.228 322.995 129.675 323.562 129.675 324.265C129.675 324.967 130.228 325.534 130.912 325.534Z" fill="black" fill-opacity="0.5"/>
<path d="M122.821 324.248C124.756 324.248 126.313 322.65 126.313 320.663C126.313 318.676 124.742 317.077 122.821 317.077C120.885 317.077 119.328 318.691 119.328 320.663C119.328 322.65 120.885 324.248 122.821 324.248Z" fill="black" fill-opacity="0.5"/>
<path d="M114.89 319.693C116.476 319.693 117.756 318.378 117.756 316.75C117.756 315.121 116.476 313.792 114.89 313.792C113.303 313.792 112.023 315.106 112.023 316.75C112.008 318.378 113.303 319.693 114.89 319.693Z" fill="black" fill-opacity="0.5"/>
<path d="M107.119 313.468C107.643 313.468 108.065 313.034 108.065 312.496C108.065 311.959 107.643 311.525 107.119 311.525C106.595 311.525 106.173 311.959 106.173 312.496C106.159 313.034 106.595 313.468 107.119 313.468Z" fill="black" fill-opacity="0.5"/>
<path d="M99.5077 309.76C100.497 309.76 101.298 308.938 101.298 307.922C101.298 306.906 100.497 306.084 99.5077 306.084C98.5182 306.084 97.7032 306.906 97.7032 307.922C97.7178 308.938 98.5182 309.76 99.5077 309.76Z" fill="black" fill-opacity="0.5"/>
<path d="M92.1007 303.472C92.3336 303.472 92.5228 303.278 92.5228 303.039C92.5228 302.8 92.3336 302.606 92.1007 302.606C91.8679 302.606 91.6787 302.8 91.6787 303.039C91.6787 303.278 91.8679 303.472 92.1007 303.472Z" fill="black" fill-opacity="0.5"/>
<path d="M84.8972 300.916C86.5562 300.916 87.895 299.541 87.895 297.838C87.895 296.135 86.5416 294.761 84.8972 294.761C83.2382 294.761 81.8849 296.135 81.8849 297.838C81.8849 299.541 83.2237 300.916 84.8972 300.916Z" fill="black" fill-opacity="0.5"/>
<path d="M77.8981 294.115C78.8585 294.115 79.6298 293.323 79.6298 292.337C79.6298 291.351 78.8585 290.56 77.8981 290.56C76.9376 290.56 76.1664 291.351 76.1664 292.337C76.1664 293.323 76.9376 294.115 77.8981 294.115Z" fill="black" fill-opacity="0.5"/>
<path d="M71.1167 288.601C72.2227 288.601 73.1104 287.69 73.1104 286.555C73.1104 285.419 72.2227 284.508 71.1167 284.508C70.0107 284.508 69.123 285.419 69.123 286.555C69.123 287.69 70.0253 288.601 71.1167 288.601Z" fill="black" fill-opacity="0.5"/>
<path d="M64.583 283.454C66.1692 283.454 67.4498 282.139 67.4498 280.496C67.4498 278.867 66.1692 277.538 64.583 277.538C62.9968 277.538 61.7162 278.867 61.7162 280.496C61.7016 282.124 62.9968 283.454 64.583 283.454Z" fill="black" fill-opacity="0.5"/>
<path d="M58.2814 274.935C58.7034 274.935 59.0381 274.591 59.0381 274.158C59.0381 273.724 58.7034 273.381 58.2814 273.381C57.8594 273.381 57.5247 273.724 57.5247 274.158C57.5392 274.591 57.8739 274.935 58.2814 274.935Z" fill="black" fill-opacity="0.5"/>
<path d="M52.2568 267.805C52.3877 267.805 52.4896 267.7 52.4896 267.566C52.4896 267.431 52.3877 267.327 52.2568 267.327C52.1258 267.327 52.0239 267.431 52.0239 267.566C52.0239 267.7 52.1258 267.805 52.2568 267.805Z" fill="black" fill-opacity="0.5"/>
<path d="M46.4798 261.922C47.1056 261.922 47.6295 261.399 47.6295 260.741C47.6295 260.099 47.1201 259.561 46.4798 259.561C45.8541 259.561 45.3302 260.084 45.3302 260.741C45.3448 261.384 45.8541 261.922 46.4798 261.922Z" fill="black" fill-opacity="0.5"/>
<path d="M40.9957 253.707C41.0112 253.707 41.0266 253.691 41.0266 253.675C41.0266 253.66 41.0112 253.644 40.9957 253.644C40.9803 253.644 40.9648 253.66 40.9648 253.675C40.9494 253.691 40.9648 253.707 40.9957 253.707Z" fill="black" fill-opacity="0.5"/>
<path d="M35.7837 246.687C35.9438 246.687 36.0748 246.553 36.0748 246.389C36.0748 246.224 35.9438 246.09 35.7837 246.09C35.6236 246.09 35.4927 246.224 35.4927 246.389C35.4927 246.553 35.6236 246.687 35.7837 246.687Z" fill="black" fill-opacity="0.5"/>
<path d="M30.8675 238.978C30.9271 238.978 30.9718 238.932 30.9718 238.87C30.9718 238.809 30.9271 238.763 30.8675 238.763C30.8079 238.763 30.7632 238.809 30.7632 238.87C30.7632 238.932 30.8228 238.978 30.8675 238.978Z" fill="black" fill-opacity="0.5"/>
<path d="M26.2546 231.271C26.3142 231.271 26.3589 231.225 26.3589 231.163C26.3589 231.102 26.3142 231.056 26.2546 231.056C26.195 231.056 26.1503 231.102 26.1503 231.163C26.1652 231.225 26.2099 231.271 26.2546 231.271Z" fill="black" fill-opacity="0.5"/>
<path d="M14.3219 207.012C14.3373 207.012 14.3528 206.996 14.3528 206.98C14.3528 206.964 14.3373 206.948 14.3219 206.948C14.3064 206.948 14.291 206.964 14.291 206.98C14.2755 206.996 14.291 207.012 14.3219 207.012Z" fill="black" fill-opacity="0.5"/>
<path d="M145.274 340.569C145.435 340.569 145.566 340.434 145.566 340.27C145.566 340.106 145.435 339.971 145.274 339.971C145.114 339.971 144.983 340.106 144.983 340.27C144.983 340.434 145.114 340.569 145.274 340.569Z" fill="black" fill-opacity="0.5"/>
<path d="M136.924 337.512C136.984 337.512 137.028 337.466 137.028 337.405C137.028 337.343 136.984 337.297 136.924 337.297C136.865 337.297 136.82 337.343 136.82 337.405C136.835 337.466 136.865 337.512 136.924 337.512Z" fill="black" fill-opacity="0.5"/>
<path d="M128.686 334.237C128.702 334.237 128.717 334.221 128.717 334.205C128.717 334.189 128.702 334.173 128.686 334.173C128.671 334.173 128.656 334.189 128.656 334.205C128.656 334.221 128.671 334.237 128.686 334.237Z" fill="black" fill-opacity="0.5"/>
<path d="M120.565 330.917C120.696 330.917 120.798 330.812 120.798 330.678C120.798 330.544 120.696 330.439 120.565 330.439C120.434 330.439 120.333 330.544 120.333 330.678C120.347 330.812 120.449 330.917 120.565 330.917Z" fill="black" fill-opacity="0.5"/>
<path d="M112.591 327.073C112.722 327.073 112.824 326.969 112.824 326.834C112.824 326.7 112.722 326.595 112.591 326.595C112.46 326.595 112.358 326.7 112.358 326.834C112.373 326.969 112.474 327.073 112.591 327.073Z" fill="black" fill-opacity="0.5"/>
<path d="M104.778 322.718C104.793 322.718 104.809 322.702 104.809 322.686C104.809 322.67 104.793 322.654 104.778 322.654C104.763 322.654 104.747 322.67 104.747 322.686C104.747 322.702 104.763 322.718 104.778 322.718Z" fill="black" fill-opacity="0.5"/>
<path d="M97.1217 318.408C97.2236 318.408 97.3109 318.319 97.3109 318.214C97.3109 318.11 97.2236 318.02 97.1217 318.02C97.0198 318.02 96.918 318.11 96.918 318.214C96.918 318.319 97.0053 318.408 97.1217 318.408Z" fill="black" fill-opacity="0.5"/>
<path d="M89.6292 313.532C89.6888 313.532 89.7335 313.486 89.7335 313.424C89.7335 313.363 89.6888 313.317 89.6292 313.317C89.5696 313.317 89.5249 313.363 89.5249 313.424C89.5398 313.501 89.5845 313.532 89.6292 313.532Z" fill="black" fill-opacity="0.5"/>
<path d="M82.3389 308.463C82.3985 308.463 82.4432 308.417 82.4432 308.355C82.4432 308.294 82.3985 308.248 82.3389 308.248C82.2793 308.248 82.2346 308.294 82.2346 308.355C82.2346 308.417 82.2793 308.463 82.3389 308.463Z" fill="black" fill-opacity="0.5"/>
<path d="M75.2519 303.1C75.3115 303.1 75.3562 303.054 75.3562 302.993C75.3562 302.931 75.3115 302.885 75.2519 302.885C75.1923 302.885 75.1476 302.931 75.1476 302.993C75.1476 303.054 75.1923 303.1 75.2519 303.1Z" fill="black" fill-opacity="0.5"/>
<path d="M68.3518 297.569C68.4536 297.569 68.5409 297.48 68.5409 297.375C68.5409 297.27 68.4536 297.181 68.3518 297.181C68.2499 297.181 68.1626 297.27 68.1626 297.375C68.1626 297.48 68.2499 297.569 68.3518 297.569Z" fill="black" fill-opacity="0.5"/>
<path d="M61.6886 291.489C61.7041 291.489 61.7195 291.473 61.7195 291.457C61.7195 291.441 61.7041 291.425 61.6886 291.425C61.6732 291.425 61.6577 291.441 61.6577 291.457C61.6577 291.473 61.6732 291.489 61.6886 291.489Z" fill="black" fill-opacity="0.5"/>
<path d="M55.2425 285.319C55.2579 285.319 55.2734 285.303 55.2734 285.287C55.2734 285.271 55.2579 285.255 55.2425 285.255C55.227 285.255 55.2115 285.271 55.2115 285.287C55.2115 285.303 55.227 285.319 55.2425 285.319Z" fill="black" fill-opacity="0.5"/>
<path d="M49.0576 278.883C49.073 278.883 49.0885 278.867 49.0885 278.851C49.0885 278.835 49.073 278.819 49.0576 278.819C49.0421 278.819 49.0267 278.835 49.0267 278.851C49.0112 278.867 49.0421 278.883 49.0576 278.883Z" fill="black" fill-opacity="0.5"/>
<path d="M43.1059 272.22C43.1213 272.22 43.1368 272.204 43.1368 272.188C43.1368 272.172 43.1213 272.156 43.1059 272.156C43.0904 272.156 43.075 272.172 43.075 272.188C43.075 272.204 43.075 272.22 43.1059 272.22Z" fill="black" fill-opacity="0.5"/>
<path d="M31.9881 258.19C32.0035 258.19 32.019 258.174 32.019 258.158C32.019 258.142 32.0035 258.126 31.9881 258.126C31.9726 258.126 31.9572 258.142 31.9572 258.158C31.9572 258.174 31.9726 258.19 31.9881 258.19Z" fill="black" fill-opacity="0.5"/>
<path d="M110.322 336.937C110.337 336.937 110.353 336.921 110.353 336.905C110.353 336.889 110.337 336.873 110.322 336.873C110.306 336.873 110.291 336.889 110.291 336.905C110.291 336.921 110.291 336.937 110.322 336.937Z" fill="black" fill-opacity="0.5"/>
<path d="M102.449 332.862C102.465 332.862 102.48 332.846 102.48 332.83C102.48 332.814 102.465 332.798 102.449 332.798C102.434 332.798 102.418 332.814 102.418 332.83C102.418 332.846 102.434 332.862 102.449 332.862Z" fill="black" fill-opacity="0.5"/>
<path d="M94.7368 328.498C94.7522 328.498 94.7677 328.482 94.7677 328.466C94.7677 328.451 94.7522 328.435 94.7368 328.435C94.7368 328.435 94.7059 328.451 94.7059 328.466C94.7059 328.482 94.7214 328.498 94.7368 328.498Z" fill="black" fill-opacity="0.5"/>
<path d="M87.1984 323.821C87.2138 323.821 87.2293 323.805 87.2293 323.789C87.2293 323.773 87.2138 323.757 87.1984 323.757C87.1829 323.757 87.1675 323.773 87.1675 323.789C87.1675 323.805 87.1829 323.821 87.1984 323.821Z" fill="black" fill-opacity="0.5"/>
<path d="M79.8356 318.874C79.851 318.874 79.8665 318.858 79.8665 318.842C79.8665 318.826 79.851 318.81 79.8356 318.81C79.8201 318.81 79.8046 318.826 79.8046 318.842C79.7892 318.858 79.8046 318.874 79.8356 318.874Z" fill="black" fill-opacity="0.5"/>
<path d="M72.6464 313.635C72.6618 313.635 72.6773 313.619 72.6773 313.603C72.6773 313.587 72.6618 313.571 72.6464 313.571C72.6309 313.571 72.6155 313.587 72.6155 313.603C72.6155 313.619 72.6155 313.635 72.6464 313.635Z" fill="black" fill-opacity="0.5"/>
<path d="M65.662 308.136C65.6774 308.136 65.6929 308.12 65.6929 308.104C65.6929 308.088 65.6774 308.072 65.662 308.072C65.6465 308.072 65.6311 308.088 65.6311 308.104C65.6156 308.12 65.6311 308.136 65.662 308.136Z" fill="black" fill-opacity="0.5"/>
<path d="M39.8457 283.544C39.8612 283.544 39.8766 283.528 39.8766 283.512C39.8766 283.496 39.8612 283.48 39.8457 283.48C39.8303 283.48 39.8148 283.496 39.8148 283.512C39.8148 283.528 39.8303 283.544 39.8457 283.544Z" fill="black" fill-opacity="0.5"/>
<path d="M33.9818 276.804C33.9972 276.804 34.0127 276.788 34.0127 276.772C34.0127 276.756 33.9972 276.74 33.9818 276.74C33.9663 276.74 33.9509 276.756 33.9509 276.772C33.9354 276.788 33.9509 276.804 33.9818 276.804Z" fill="black" fill-opacity="0.5"/>
<path d="M28.3502 269.844C28.3657 269.844 28.3812 269.828 28.3812 269.812C28.3812 269.796 28.3657 269.78 28.3502 269.78C28.3348 269.78 28.3193 269.796 28.3193 269.812C28.3193 269.828 28.3348 269.844 28.3502 269.844Z" fill="black" fill-opacity="0.5"/>
<path d="M100.15 343.005C100.165 343.005 100.181 342.989 100.181 342.973C100.181 342.957 100.165 342.941 100.15 342.941C100.134 342.941 100.119 342.957 100.119 342.973C100.104 342.989 100.119 343.005 100.15 343.005Z" fill="black" fill-opacity="0.5"/>
<path d="M56.1169 313.261C56.1914 313.261 56.251 313.2 56.251 313.123C56.251 313.046 56.1914 312.985 56.1169 312.985C56.0424 312.985 55.9828 313.046 55.9828 313.123C55.9828 313.2 56.0424 313.261 56.1169 313.261Z" fill="black" fill-opacity="0.5"/>
<path d="M30.6626 288.178C30.6781 288.178 30.6935 288.162 30.6935 288.146C30.6935 288.13 30.6781 288.114 30.6626 288.114C30.6472 288.114 30.6317 288.13 30.6317 288.146C30.6317 288.162 30.6472 288.178 30.6626 288.178Z" fill="black" fill-opacity="0.5"/>
<path d="M24.8717 281.362C24.8872 281.362 24.9026 281.346 24.9026 281.33C24.9026 281.314 24.8872 281.298 24.8717 281.298C24.8563 281.298 24.8408 281.314 24.8408 281.33C24.8408 281.346 24.8563 281.362 24.8717 281.362Z" fill="black" fill-opacity="0.5"/>
<path d="M60.3937 329.406C60.4092 329.406 60.4246 329.39 60.4246 329.374C60.4246 329.358 60.4092 329.342 60.3937 329.342C60.3782 329.342 60.3628 329.358 60.3628 329.374C60.3628 329.39 60.3782 329.406 60.3937 329.406Z" fill="black" fill-opacity="0.5"/>
<path d="M53.4238 323.882C53.4393 323.882 53.4547 323.866 53.4547 323.85C53.4547 323.834 53.4393 323.818 53.4238 323.818C53.4084 323.818 53.3929 323.834 53.3929 323.85C53.3774 323.866 53.3929 323.882 53.4238 323.882Z" fill="black" fill-opacity="0.5"/>
<path d="M5.03725 271.575C5.05271 271.575 5.06816 271.559 5.06816 271.543C5.06816 271.527 5.05271 271.511 5.03725 271.511C5.0218 271.511 5.00635 271.527 5.00635 271.543C5.00635 271.559 5.0218 271.575 5.03725 271.575Z" fill="black" fill-opacity="0.5"/>
<path d="M0.0309061 264.139C0.0463592 264.139 0.0618122 264.123 0.0618122 264.107C0.0618122 264.091 0.0463592 264.075 0.0309061 264.075C0.0154531 264.075 0 264.091 0 264.107C0 264.123 0.0154531 264.139 0.0309061 264.139Z" fill="black" fill-opacity="0.5"/>
</svg>
